<mxfile host="app.diagrams.net" agent="Mozilla/5.0 (Windows NT 10.0; Win64; x64) AppleWebKit/537.36 (KHTML, like Gecko) Chrome/138.0.0.0 Safari/537.36 Edg/138.0.0.0" version="27.1.6">
  <diagram name="Page-1" id="zmphQNX7_Rlj4yGG7cNF">
    <mxGraphModel dx="1371" dy="754" grid="1" gridSize="10" guides="1" tooltips="1" connect="1" arrows="1" fold="1" page="1" pageScale="1" pageWidth="850" pageHeight="1100" math="0" shadow="0">
      <root>
        <mxCell id="0" />
        <mxCell id="1" parent="0" />
        <mxCell id="3lG1UrTHF1sLtfa0VYhH-1" value="NRCS Simplified Peak Discharge Method Schema" style="shape=table;startSize=30;container=1;collapsible=1;childLayout=tableLayout;fixedRows=1;rowLines=0;fontStyle=1;align=center;resizeLast=1;html=1;fontSize=15;" vertex="1" parent="1">
          <mxGeometry x="220" y="10" width="375" height="300" as="geometry" />
        </mxCell>
        <mxCell id="3lG1UrTHF1sLtfa0VYhH-2" value="" style="shape=tableRow;horizontal=0;startSize=0;swimlaneHead=0;swimlaneBody=0;fillColor=none;collapsible=0;dropTarget=0;points=[[0,0.5],[1,0.5]];portConstraint=eastwest;top=0;left=0;right=0;bottom=1;fontSize=15;" vertex="1" parent="3lG1UrTHF1sLtfa0VYhH-1">
          <mxGeometry y="30" width="375" height="30" as="geometry" />
        </mxCell>
        <mxCell id="3lG1UrTHF1sLtfa0VYhH-3" value="PK" style="shape=partialRectangle;connectable=0;fillColor=none;top=0;left=0;bottom=0;right=0;fontStyle=1;overflow=hidden;whiteSpace=wrap;html=1;fontSize=15;" vertex="1" parent="3lG1UrTHF1sLtfa0VYhH-2">
          <mxGeometry width="30" height="30" as="geometry">
            <mxRectangle width="30" height="30" as="alternateBounds" />
          </mxGeometry>
        </mxCell>
        <mxCell id="3lG1UrTHF1sLtfa0VYhH-4" value="CulvertID" style="shape=partialRectangle;connectable=0;fillColor=none;top=0;left=0;bottom=0;right=0;align=left;spacingLeft=6;fontStyle=5;overflow=hidden;whiteSpace=wrap;html=1;fontSize=15;" vertex="1" parent="3lG1UrTHF1sLtfa0VYhH-2">
          <mxGeometry x="30" width="345" height="30" as="geometry">
            <mxRectangle width="345" height="30" as="alternateBounds" />
          </mxGeometry>
        </mxCell>
        <mxCell id="3lG1UrTHF1sLtfa0VYhH-5" value="" style="shape=tableRow;horizontal=0;startSize=0;swimlaneHead=0;swimlaneBody=0;fillColor=none;collapsible=0;dropTarget=0;points=[[0,0.5],[1,0.5]];portConstraint=eastwest;top=0;left=0;right=0;bottom=0;fontSize=15;" vertex="1" parent="3lG1UrTHF1sLtfa0VYhH-1">
          <mxGeometry y="60" width="375" height="30" as="geometry" />
        </mxCell>
        <mxCell id="3lG1UrTHF1sLtfa0VYhH-6" value="" style="shape=partialRectangle;connectable=0;fillColor=none;top=0;left=0;bottom=0;right=0;editable=1;overflow=hidden;whiteSpace=wrap;html=1;fontSize=15;" vertex="1" parent="3lG1UrTHF1sLtfa0VYhH-5">
          <mxGeometry width="30" height="30" as="geometry">
            <mxRectangle width="30" height="30" as="alternateBounds" />
          </mxGeometry>
        </mxCell>
        <mxCell id="3lG1UrTHF1sLtfa0VYhH-7" value="A, drainage area (acres)" style="shape=partialRectangle;connectable=0;fillColor=none;top=0;left=0;bottom=0;right=0;align=left;spacingLeft=6;overflow=hidden;whiteSpace=wrap;html=1;fontSize=15;" vertex="1" parent="3lG1UrTHF1sLtfa0VYhH-5">
          <mxGeometry x="30" width="345" height="30" as="geometry">
            <mxRectangle width="345" height="30" as="alternateBounds" />
          </mxGeometry>
        </mxCell>
        <mxCell id="3lG1UrTHF1sLtfa0VYhH-14" value="" style="shape=tableRow;horizontal=0;startSize=0;swimlaneHead=0;swimlaneBody=0;fillColor=none;collapsible=0;dropTarget=0;points=[[0,0.5],[1,0.5]];portConstraint=eastwest;top=0;left=0;right=0;bottom=0;fontSize=15;" vertex="1" parent="3lG1UrTHF1sLtfa0VYhH-1">
          <mxGeometry y="90" width="375" height="30" as="geometry" />
        </mxCell>
        <mxCell id="3lG1UrTHF1sLtfa0VYhH-15" value="" style="shape=partialRectangle;connectable=0;fillColor=none;top=0;left=0;bottom=0;right=0;editable=1;overflow=hidden;whiteSpace=wrap;html=1;fontSize=15;" vertex="1" parent="3lG1UrTHF1sLtfa0VYhH-14">
          <mxGeometry width="30" height="30" as="geometry">
            <mxRectangle width="30" height="30" as="alternateBounds" />
          </mxGeometry>
        </mxCell>
        <mxCell id="3lG1UrTHF1sLtfa0VYhH-16" value="Tc, time of concentration (hours)" style="shape=partialRectangle;connectable=0;fillColor=none;top=0;left=0;bottom=0;right=0;align=left;spacingLeft=6;overflow=hidden;whiteSpace=wrap;html=1;fontSize=15;" vertex="1" parent="3lG1UrTHF1sLtfa0VYhH-14">
          <mxGeometry x="30" width="345" height="30" as="geometry">
            <mxRectangle width="345" height="30" as="alternateBounds" />
          </mxGeometry>
        </mxCell>
        <mxCell id="3lG1UrTHF1sLtfa0VYhH-8" value="" style="shape=tableRow;horizontal=0;startSize=0;swimlaneHead=0;swimlaneBody=0;fillColor=none;collapsible=0;dropTarget=0;points=[[0,0.5],[1,0.5]];portConstraint=eastwest;top=0;left=0;right=0;bottom=0;fontSize=15;" vertex="1" parent="3lG1UrTHF1sLtfa0VYhH-1">
          <mxGeometry y="120" width="375" height="30" as="geometry" />
        </mxCell>
        <mxCell id="3lG1UrTHF1sLtfa0VYhH-9" value="" style="shape=partialRectangle;connectable=0;fillColor=none;top=0;left=0;bottom=0;right=0;editable=1;overflow=hidden;whiteSpace=wrap;html=1;fontSize=15;" vertex="1" parent="3lG1UrTHF1sLtfa0VYhH-8">
          <mxGeometry width="30" height="30" as="geometry">
            <mxRectangle width="30" height="30" as="alternateBounds" />
          </mxGeometry>
        </mxCell>
        <mxCell id="3lG1UrTHF1sLtfa0VYhH-10" value="CN, runoff curve number" style="shape=partialRectangle;connectable=0;fillColor=none;top=0;left=0;bottom=0;right=0;align=left;spacingLeft=6;overflow=hidden;whiteSpace=wrap;html=1;fontSize=15;" vertex="1" parent="3lG1UrTHF1sLtfa0VYhH-8">
          <mxGeometry x="30" width="345" height="30" as="geometry">
            <mxRectangle width="345" height="30" as="alternateBounds" />
          </mxGeometry>
        </mxCell>
        <mxCell id="3lG1UrTHF1sLtfa0VYhH-11" value="" style="shape=tableRow;horizontal=0;startSize=0;swimlaneHead=0;swimlaneBody=0;fillColor=none;collapsible=0;dropTarget=0;points=[[0,0.5],[1,0.5]];portConstraint=eastwest;top=0;left=0;right=0;bottom=0;fontSize=15;" vertex="1" parent="3lG1UrTHF1sLtfa0VYhH-1">
          <mxGeometry y="150" width="375" height="30" as="geometry" />
        </mxCell>
        <mxCell id="3lG1UrTHF1sLtfa0VYhH-12" value="" style="shape=partialRectangle;connectable=0;fillColor=none;top=0;left=0;bottom=0;right=0;editable=1;overflow=hidden;whiteSpace=wrap;html=1;fontSize=15;" vertex="1" parent="3lG1UrTHF1sLtfa0VYhH-11">
          <mxGeometry width="30" height="30" as="geometry">
            <mxRectangle width="30" height="30" as="alternateBounds" />
          </mxGeometry>
        </mxCell>
        <mxCell id="3lG1UrTHF1sLtfa0VYhH-13" value="P&lt;sub&gt;24&lt;/sub&gt;, 24-hour rainfall depth (inches)" style="shape=partialRectangle;connectable=0;fillColor=none;top=0;left=0;bottom=0;right=0;align=left;spacingLeft=6;overflow=hidden;whiteSpace=wrap;html=1;fontSize=15;" vertex="1" parent="3lG1UrTHF1sLtfa0VYhH-11">
          <mxGeometry x="30" width="345" height="30" as="geometry">
            <mxRectangle width="345" height="30" as="alternateBounds" />
          </mxGeometry>
        </mxCell>
        <mxCell id="3lG1UrTHF1sLtfa0VYhH-34" value="" style="shape=tableRow;horizontal=0;startSize=0;swimlaneHead=0;swimlaneBody=0;fillColor=none;collapsible=0;dropTarget=0;points=[[0,0.5],[1,0.5]];portConstraint=eastwest;top=0;left=0;right=0;bottom=0;fontSize=15;" vertex="1" parent="3lG1UrTHF1sLtfa0VYhH-1">
          <mxGeometry y="180" width="375" height="30" as="geometry" />
        </mxCell>
        <mxCell id="3lG1UrTHF1sLtfa0VYhH-35" value="" style="shape=partialRectangle;connectable=0;fillColor=none;top=0;left=0;bottom=0;right=0;editable=1;overflow=hidden;whiteSpace=wrap;html=1;fontSize=15;" vertex="1" parent="3lG1UrTHF1sLtfa0VYhH-34">
          <mxGeometry width="30" height="30" as="geometry">
            <mxRectangle width="30" height="30" as="alternateBounds" />
          </mxGeometry>
        </mxCell>
        <mxCell id="3lG1UrTHF1sLtfa0VYhH-36" value="q&lt;sub&gt;u&lt;/sub&gt;, unit peak discharge (cfs/ac-in)" style="shape=partialRectangle;connectable=0;fillColor=none;top=0;left=0;bottom=0;right=0;align=left;spacingLeft=6;overflow=hidden;whiteSpace=wrap;html=1;fontSize=15;" vertex="1" parent="3lG1UrTHF1sLtfa0VYhH-34">
          <mxGeometry x="30" width="345" height="30" as="geometry">
            <mxRectangle width="345" height="30" as="alternateBounds" />
          </mxGeometry>
        </mxCell>
        <mxCell id="3lG1UrTHF1sLtfa0VYhH-37" value="" style="shape=tableRow;horizontal=0;startSize=0;swimlaneHead=0;swimlaneBody=0;fillColor=none;collapsible=0;dropTarget=0;points=[[0,0.5],[1,0.5]];portConstraint=eastwest;top=0;left=0;right=0;bottom=0;fontSize=15;" vertex="1" parent="3lG1UrTHF1sLtfa0VYhH-1">
          <mxGeometry y="210" width="375" height="30" as="geometry" />
        </mxCell>
        <mxCell id="3lG1UrTHF1sLtfa0VYhH-38" value="" style="shape=partialRectangle;connectable=0;fillColor=none;top=0;left=0;bottom=0;right=0;editable=1;overflow=hidden;whiteSpace=wrap;html=1;fontSize=15;" vertex="1" parent="3lG1UrTHF1sLtfa0VYhH-37">
          <mxGeometry width="30" height="30" as="geometry">
            <mxRectangle width="30" height="30" as="alternateBounds" />
          </mxGeometry>
        </mxCell>
        <mxCell id="3lG1UrTHF1sLtfa0VYhH-39" value="Q, direct runoff depth (inches)" style="shape=partialRectangle;connectable=0;fillColor=none;top=0;left=0;bottom=0;right=0;align=left;spacingLeft=6;overflow=hidden;whiteSpace=wrap;html=1;fontSize=15;" vertex="1" parent="3lG1UrTHF1sLtfa0VYhH-37">
          <mxGeometry x="30" width="345" height="30" as="geometry">
            <mxRectangle width="345" height="30" as="alternateBounds" />
          </mxGeometry>
        </mxCell>
        <mxCell id="3lG1UrTHF1sLtfa0VYhH-40" value="" style="shape=tableRow;horizontal=0;startSize=0;swimlaneHead=0;swimlaneBody=0;fillColor=none;collapsible=0;dropTarget=0;points=[[0,0.5],[1,0.5]];portConstraint=eastwest;top=0;left=0;right=0;bottom=0;fontSize=15;" vertex="1" parent="3lG1UrTHF1sLtfa0VYhH-1">
          <mxGeometry y="240" width="375" height="30" as="geometry" />
        </mxCell>
        <mxCell id="3lG1UrTHF1sLtfa0VYhH-41" value="" style="shape=partialRectangle;connectable=0;fillColor=none;top=0;left=0;bottom=0;right=0;editable=1;overflow=hidden;whiteSpace=wrap;html=1;fontSize=15;" vertex="1" parent="3lG1UrTHF1sLtfa0VYhH-40">
          <mxGeometry width="30" height="30" as="geometry">
            <mxRectangle width="30" height="30" as="alternateBounds" />
          </mxGeometry>
        </mxCell>
        <mxCell id="3lG1UrTHF1sLtfa0VYhH-42" value="Q&lt;sub&gt;p&lt;/sub&gt;, peak discharge (cfs)" style="shape=partialRectangle;connectable=0;fillColor=none;top=0;left=0;bottom=0;right=0;align=left;spacingLeft=6;overflow=hidden;whiteSpace=wrap;html=1;fontSize=15;" vertex="1" parent="3lG1UrTHF1sLtfa0VYhH-40">
          <mxGeometry x="30" width="345" height="30" as="geometry">
            <mxRectangle width="345" height="30" as="alternateBounds" />
          </mxGeometry>
        </mxCell>
        <mxCell id="3lG1UrTHF1sLtfa0VYhH-43" value="" style="shape=tableRow;horizontal=0;startSize=0;swimlaneHead=0;swimlaneBody=0;fillColor=none;collapsible=0;dropTarget=0;points=[[0,0.5],[1,0.5]];portConstraint=eastwest;top=0;left=0;right=0;bottom=0;fontSize=15;" vertex="1" parent="3lG1UrTHF1sLtfa0VYhH-1">
          <mxGeometry y="270" width="375" height="30" as="geometry" />
        </mxCell>
        <mxCell id="3lG1UrTHF1sLtfa0VYhH-44" value="" style="shape=partialRectangle;connectable=0;fillColor=none;top=0;left=0;bottom=0;right=0;editable=1;overflow=hidden;whiteSpace=wrap;html=1;fontSize=15;" vertex="1" parent="3lG1UrTHF1sLtfa0VYhH-43">
          <mxGeometry width="30" height="30" as="geometry">
            <mxRectangle width="30" height="30" as="alternateBounds" />
          </mxGeometry>
        </mxCell>
        <mxCell id="3lG1UrTHF1sLtfa0VYhH-45" value="Q&lt;sub&gt;v&lt;/sub&gt;, runoff volume (ac-ft)" style="shape=partialRectangle;connectable=0;fillColor=none;top=0;left=0;bottom=0;right=0;align=left;spacingLeft=6;overflow=hidden;whiteSpace=wrap;html=1;fontSize=15;" vertex="1" parent="3lG1UrTHF1sLtfa0VYhH-43">
          <mxGeometry x="30" width="345" height="30" as="geometry">
            <mxRectangle width="345" height="30" as="alternateBounds" />
          </mxGeometry>
        </mxCell>
        <mxCell id="3lG1UrTHF1sLtfa0VYhH-46" style="edgeStyle=orthogonalEdgeStyle;rounded=0;orthogonalLoop=1;jettySize=auto;html=1;exitX=1;exitY=0.5;exitDx=0;exitDy=0;entryX=0.5;entryY=0;entryDx=0;entryDy=0;" edge="1" parent="1" source="3lG1UrTHF1sLtfa0VYhH-34" target="3lG1UrTHF1sLtfa0VYhH-47">
          <mxGeometry relative="1" as="geometry">
            <mxPoint x="110" y="480" as="targetPoint" />
          </mxGeometry>
        </mxCell>
        <mxCell id="3lG1UrTHF1sLtfa0VYhH-47" value="" style="shape=image;verticalLabelPosition=bottom;labelBackgroundColor=default;verticalAlign=top;aspect=fixed;imageAspect=0;image=data:image/png,iVBORw0KGgoAAAANSUhEUgAAAWoAAAFwCAYAAACRlTEeAAAAAXNSR0IArs4c6QAAAARnQU1BAACxjwv8YQUAAAAJcEhZcwAADsMAAA7DAcdvqGQAAAASdEVYdFNvZnR3YXJlAEdyZWVuc2hvdF5VCAUAAIaZSURBVHhe7Z1b7DzJfdXzlCcQCHjhgZuQkSKuCTwBAlYkQjIStyD8AOYirBAwUgyKEAkQLgZCgISFKI4jbLPEiTYhjgEh2bkp2LHXxoltbGN7N2Cb+LaO196QdWIbCcSgz+ycn87v/Kt6uruqZ2d76kil30x3VXed7/dbp6prqvr3JV/yJV9yGGmkkUYa6arTsx8GBoT/8l/+y12A7BU/9mM/dq8hDDx/sXcfDqEeKGII9cDzCXv34RDqgSKGUA88n7B3H96kUP/n//yf7zXQTANDqJ+PyDj2RMzvGXvxYQ0nfvsmmfiv//W/Hn7/7//9x/Trft2vO3L/7b/9t98dGxhC/XyE4pdYhs8v+2W/7O4YMb9n7MWHNdykUDv+7t/9u0fupRHH//pf/+vwyCOPHP7e3/t7x7+3hCHUz1/oibE26Pj3//7fH2P64YcfPsb4HrA3HyaGUFeE+n/+z/95+OW//JcfzzEy4e+f//N//l6ePeMSQv3n/tyfu7uHPuMHCQ2+Afm9F25RqH20zd/f8Tt+xy7EeksfYp8/9sf+2PH6aMLXfd3XPRCr0o/83gsnftuRvHbUhPqP/tE/ejyuR0aEhMDfQ1DPwdZC/W/+zb85Xhu7YnsJyBDqdtSE+l/8i39xz474gDwZ+89HbOlDaQR/eRrRdOkQ6guiJtQ4g3Sr2FqoNYJWx0cDyOAfQr0ONaH2keDesKUPsSNPIIJrRgpzfu+FE7/tSF47poTabcJUCOlWsLVQ64lF8ABPYc7vvXDrQk0nuZcfGbf0IXb89b/+1999H0L9HKAm1Brx8XhIQP+BP/AHjt9vRay3Fmo9hjOSBhJu/IB48Blh8bxDqOehJtSabtJvLbIrf5/v2NKH0gLi0rXAhVo2zM6wF078tiN57agJNYKsUbUSDrsVbC3UBLzb1+eogb4zktHnIdTzUBNqwDHnjG338LvLlj5EC/TjK0mfsTO203eP1dSTVpzuvR3JawdOkMETHOMcveVeHhHnYmuhBtiXUR6j6nxk9HOA472fZvYq1IrbWswqpnuLyXOJrX1I7BGP2DQHd5yTPWX7kp604OaFeqCMSwi1I4X6EtirUN8iLunDFOpL4J5Q/9//+39HGumYHnvssbvgz3NbpHe+852H3/f7ft/xb57bKv3Ij/zIPaHO83tI/+///b9jQ8/je0uX9OGrX/3qi8fqPaEeaaSRRhrpatMDB0YaaaSRRrqu9OyHgWnckp0uPUf9XOAW5qj3zM2xd55DqBfgluw0hHof2DM3x955XkSo97Krb2s7zcGlfmluFWr8zRvatLyuhv/zf/7P4Tu/8zvz8CosjbNWoV56v+cCa7n1wqVs1MJTsVpbzig89dRTh+///u/Pw6ugzTNzcRGhZjlL780KzwW2ttMcXOr+rULNZhZ2G57rWN785jcfvuZrviYPr8LSOGsV6qX3ey6wllsvXMpGa3kilnoj3rlYfc1rXnP4J//kn+ThVVj6Mqwh1AuwtZ2uCa1CPbfcN37jNx5+8Ad/MA9fBEOo94O1PLV+fw5e9KIXnR11b4WLCTXvc2WLJdst2SuvYT87eujRGIFxXIbIHkffuRZbuSnDdk0eW7gu57nGlg1nKztRZ0afbh92QWmLtb+LQfenDMdLNu2BOUKt9x7oTYPUGagcCZ/hL+XJev7O3/k7D7/4i794PEaMKB+8FAtMn2h7LudqjUXCyT3JyzstsA2xUpqC6SHUtbjmfopR51KLa9VZbUG25RjXftnLXnZXZgnWcjsHrskoVPbF99SX7/6Oa/cJXLNML5zjif2pF7bl/qVYdZuTz23OevTf9Jt+0/EzmuO+cb9zXfmd47VpH/c7NpHtPFYcpzpOk2wFjqJiIgMJCFFJKicyEh5QC2iupTIkvuvlPVzf79MbW9lJnFRvTRsAvaBI0GfK+Hsa+Nzz5TpzhJo6uu3dlyonARL0/mmV+T2/5/ccP6uz8nwcIw+Br+AlbmhwJbgocH/dB7uU3nvRQ6glqoB7cC9sgC28o5F/a3GtOmvuMuMa29Qa/RTWcjsHrql408udvDPSufSJOkx1vr1wjqe3D7Up7Kp6Ac7L5gCbi9M73vGOw4tf/OLjZ8WmoGvL765nHtMO97vHCvcvlTnxmybZCjlLoDI65scB9YBoLaDJ741OPRi933/4D//h7vgW2MpOyYnPPgL0e+pz2i6/t2KOUMtXJaicgpfRLf/OzDvR7/3e7z38g3/wD+6+c+5Nb3rT8V9EMcJQAy+JLGDKROnnfu7n7okC9xRq1+gh1CUflBoojVn1KMV11lHijt1a4nott3Nw32fd3S7uE68HZXvWa4oncVU75/VS3MjmHqvE6fd8z/fcfaf+ilUGDuKZfgfPPPPMvVgFNb/nd+HEr06yB2oBnccBI5SpgCZ/EuE44q9H5pp4tGIrOyWn5O731Oe0XX5vxVyhrj29ZKPUqJbj6oT+7J/9s8eRCpAwabSiv7XABX/wD/7Bu/TEE0/c2SDL5HdhK6Em+cgMyKfp21qDBYyyuI6mRNbE9Vpu5+DXzLq7XdwnWY/83oIpnlOdQtaLvG5zjXR/9+/+3XexrmlJYlSdsniW3rD5kY985F6sfu5zn6v6Pb8LJ351kj1QC2hIMnISZFA9IqpB6/G3JNRcwwNfI5ctsJWdklM2Zr+nPtds2gtzhBpb+8if7wpsleO718sf7Zjz07so3N9AQk15nxYiRmgkJbgozAn+rYQ6H+s1otOTos/NamCSdfQ3BwKJwVKs5XYOfs2su9vFfZL1yO8tOMfTpySApqy8Xnx23+jJn99QvuIrvuLuONdKzZHffVqO76URNnheCTWAJD/IsI4Rkj63xXeOQ1YBzXEnopEY+Zj+SIf0xFZ2Sk7PF6F22/O46HPRKqepD3xDPgSMcu95z3uOv6ILNAr8zaMkebmWbIJo06FnjCRcFOYE/1ZCDYhZj2uNtKg7gw7FtQYWWUe3LYn4XxPXa7mdg18z6+52cJ9kPfJ7C87xxO7YGlviF/nD66VBgWyuETXTFd/wDd9wdy35lljVD+AlvxPrtR9Mr1KoCTAPsvxOUEI0f+3kuCbp9SOLPjs0aiNv7VG8B7ayU3ISV8FFW5/Thvm9FXOEGnBP7O6jP+B1hgsBi49Ux3e9612Ht73tbVbifhxQJm1SihGHbJBl87vQKtRp8/yugYXbQscV16pvqY6yrfKuwVpu55D+9bq7HZxjyQ69MIcndcxYzXqVbP6jP/qjh8cff/wuD/B4Jjl/xfGUzxTjabv8LlxEqPeCW7LTXKF+PqNVqJ8P2DM3x9553hPqkUYaaaSRrjY9cGCkkUYaaaTrSg8cGGmkkUYa6brSsx8GpnFLdhpz1PsAGzf2zE/YO8ch1AtwS3YaQr0PDKHeBy4q1CyDKS09KaGUj2Ns2xRY/sL3TFst0ethJy1VymNz6p38BZUvLQdaYnNHb6E+V4cpG9Q4yB6lMnPQW6hLdRRKseo4x3EtLiXU+KAWg60c5qAHxykOjhqfWnnlVyr5+RwuItQQYNG/FvizOWIKLEbPRd+U5Zg2v3BN1ip6Q1NaY4g5aLUT9dIOS4H1mCyyF69cjyxgE2wnG0qctDGC8/zVAvu0OYvwl6CnUFOnqevgR23J1cYmkBw8brwMvNf4vKdQz+GYcQrgyMYI+d85yh46lwIwB5cQasW16utvnfO4VbvdAq0c4eC2rm2qEp+MO2LWbaANMADdcr+nts3BqWwbyXOg0r4HPrceCwQiguK70gBGw4CCthcnasd7ocVOej9Abj/17/wlT4KyvuvPebqw8ZfrAWyWNq/tkiqhh1DTKNmhRZ1q1yHQOa8GTAyIA7sV/Z0Z4qo8KoMtPD7moodQiyN1m7oG8VyKeXzkb8njOtgk7ZJtaC4uIdTUObfFU/+MZ3iu4TAHrRyJHx/kcK3sGCXmgr8OgePuX9kAcK3WDurEr43kOWSQEnT50hqAoUg42IVa2y0xXG3kxPVLItcTLXbCodRdXEAGMuD6yVHvHBDgynXIl/WR8M+1eQ09hJp60DAV+CWkr4FsoO3VAhxIdEJehrioXX8KPYSaemLXKY5AnUw++npHC+TrFGbyMGJbiksIdV7bOXjMwaH2itpWtHKkrIsp8XVuYOMdT96b9g5/YlOiXZoWmYsTvzaS55CjSAhk43Rk49XUAA2X5C8mFzLgt0APO6VQpx1SnAB5XKg5z+Nyqbyun9dJcTuHHkLtqF1HoxQfUZOXuuuvoJFzCgCoXX8KPYTaUbuGRNwfmeVPjrtwS+CU8hpLcQmhzvYNT/ko43arerRyzLKKsxLwFxpEx6m4zek32YDBEtfmeiTylZ6szuHEr43kOXDtbHBTopECJKJCGlHTClujh53OCbWf92MZ8OqYauWz48JGmXcKlxJqgD/1Ai4CXHUvxY18n41o6vo1XFKovXGqMyo9CdSEGmTeObiEUOt3Fr3wSCKVU5GlJ8BeaOWYZUv2F/AbcQk/vf2zZgPlFci35h8mnPi1kTyHFB8I5IjIkQKUoqNHfwGD1Sb/e6KHnc4JdfbMIANe5fibTtdIumTzJfODlxRqgE/1Ihw9KqbfXcCcy9rR5qWEugRxS3/XhJo8mrtfgksINaB++E9TQSUO8N1qQNXKMcvSfs5piuJOo+q0Qal8qXOegxO/NpLnkELjE/clpIBl+fxRIoN9K/SwkwtoOtp/SHNgK+frQkV+zXtxHZXHRt4ZLu3MLiXU1N2fltwGWWdshy0k4gIi/1z9mOioXYP6+dys/C7u3hb0Q3uWIc8ajpcQavzk7U8dbS8Oc9DKUXYXxMFB/UvvzwfYwOefVT7b4drf0k782kieg0ZJ/q5h4Y//8T9+FAVHCrUaL2VJXEtGWdtDrUEPO+VIFyfqsd/ftcwPD3pfMw0bm+mdzi7OiLaXV4cmm3FcNs95/SlsLdRf+ZVfeXj/+99//IxN/N3NajASZOIm33dNg1cZ5grXzPttLdRf9mVfdvjpn/7p42fqrncYu580yvRHZkFl/N3IS3EJoVYM6v3MPqhw3iXx64VWjsSPT12Iw6c+9amjHz/72c/etUNiMdtrzQZ6EqINygZrYvXEr43kHCAckCK5YDz22GOHp59++l5ezqdDOUaPhkG85+K4C9+W6GEneKVgUn94OY+nnnrq8Pa3v/3ue40/UPkMgJrN56C3UKeP3vzmNx//lxygbtSxxG2Kg+yRsTIXvYU6Ob72ta+9V+dafedwTLvMxSWEGigG80l5Km57ogdH/JIcPv/5zx/9+MUvfvH43fmkH6dsIP+utcHFhHoPuCU79Rbqa0Rvob5GXEqon2vsneM9oR5ppJFGGulq0wMHRhpppJFGuq707IeBadySncbUxz4wpj72gSHUC3BLdhpCvQ8Mod4HhlAvwC3ZaQj1PjCEeh+4mFCzXpj1hKRcviKwvIWddqw1zLWxXt43QagMx1mMnsubeqLVTtSNtZa+jAuO4szfXGInYDNsojWZAkuEvLwvGarZbA56CjV1qr1QCFu4WCpxHHvhU7hl3MgenFvr9x5CzXIr1ZFrsL62BPkp45S/rLud4shx1u6u4bi1UFNH3/MgPoo7f21rzQY90MpRsUbd9B6dEjzu4Jkc4Jj18HbobXcJTvzaSJ6DOxNitYXvENFxLRTXusUsr4bsGwFyx2JvtNiJBo1IS4RA1l+cE+SHM/lJ2qEHWIAvEeavdoKVbFayeQ29hJq6w3Hudai3Nn3gS/kTDlwDO6bd2Pyyxu89hJp7y/4emwk/Tn7t0GPdrT7L/3AkiS/I99vMxZZCDQ+u60LtfIDskz4j3xqf1dDK0Xc/u/Y48jjcctch570eimeV8ba7BCd+bSTPgcrl6DiDTov+HZAmuJOcynNN38nFNUpC1wstdqJe1Nd3JlLfdBrXz4ae21AlwmrMDjXums3moodQq4MpjTJKoN7klzhRzhuLrpWjOHUGS9FDqHMjR0lQqZ/HqTodwHH3t7bNk1zIyOPbsediK6GW0CqmBXzj9pBwpw1KsduCVo5qN0L6BXDej3mnJJ1S5+Vl/LreISzBiV8byXOQ4ArZ65ZAfomuixugPMf017Eljx52Si4OghwxSoiroKDQ38zr54WSrabQQ6gdc65TC2Ls4ttyyeMdF5hz/UQPoXbkqFHIjgVwP/zDX88PN0/CWmHbSqiFUgwK2INpBPiX4o865ah1LVo5Ztlscw58odcypK/l0wTH17zKQTjxayN5DgpKoeQ0B+T9UT2Fnl5Lhkxj9nR+ooedUkAFjtWmJyjjTyTKW2okun7aXDabi0sLtZ6GSr6joSPMGm3X/L4UPYWaevs7PByleJd/8r41oQaZdw6eK6HGHsz5euea+TJGW9DCsfTEV3oyEqgz53za0c/ltXScMsRwPkXPwYnfepJzkPN2VDhHRAIkfK4apLhRXnNfJedvhR52Si6gxNmRQaPGUWokemTL+8hmc3Fpoc5H/RI0BVSKn3PXL6GXUOM3RtK1BlgbUWuUnFMFJaF+Po2o1Wm5P7duq60csyx1TRFOlHxSE2pBiweW4sSvjeQ5IBAexJqHS+jRPwUr86uxYhSft9NIfCv0sFMKKJxLj1AOuLswSdR8rhPoO3/n2ryGSws1dskVL3DIaQHsQD73O/b0+c+56CHU50QaZFzq6QEkb/mN5B1rzgXPxaWFWiKdsTZlgx5o5Zi6U5qjxgfeeWb7AynU2MFjg/NrNOrEr43kOaghYQj9MqpH3G/5lm85/I//8T/ueie91lFJE/ia/qC8/+DEdXl9oES79rjSAz3s5EItznptonPmFaD/8l/+y7t8cKbRURZh0DVozJTnO381ipmy2RxsLdTw/MQnPnHvfNYPUdZyRrj7/C983O9TQllDD6GmHtzf/SfffO3Xfu3hySefPH7G75yj/vhJcUq9xRE+ahskPjvH7Mjm4NJCzee0h3yjtooNerfVVo7UhTpRN+qojv8zn/nM0Y+8RU+dyyOPPHLkna90BRz3ekjv1HZLndgcnPi1kZwDKoyo5ChJQg2JfOwjqfHWyhPQNGgCpKfjS+hhJ4JWnKY4u1ADOBMUOQKDP2XE3+d4azabg95Cnb5Joc7zgqYN4C4BBPCUPdaINGgVavyUviOpni95yUvuhHoqTt1P3lnxuZXj1kJNHb1uaQuSzk/ZoBU9OGp6Rk+rgNcN40eEGng7LAmuYsJBPMi/a/14MaHeA27JTr2F+hrRKtTPB2wt1NeCvXO8J9T/8B/+w5Em0i3Z6S/9pb+0e75/4S/8hXtCnef3kP70n/7Tu+antHeO94R6pJFGGmmkq03PfhiYxi3ZaUx97ANj6mMfGEK9ALdkpyHU+8AQ6n1gCPUC3JKdhlDvA0Oo94GLCTVLkNhSytrD2lIxlrawxlT5fKkSS15K5fnMMc7VXjHZCz3sxPKkEn+WA8GhBpb4cJ6Uy/Nks3wV5hyb19BTqKkTdZiC/AsH9zvLoMSbJB49/N5DqOHG/VU/X0LoYFmW8/ANTHNim7W7a7C1UFPH3CXKMjTnqiVp3r7X+qyGHhw9Br0dObR+mny8u6PU3jIO3I9r1sKDiwg1latteHGweYC1iTiUv9rBw2fKc9zLk9gEwTHOkSfXMPZEq51Yf0n5UmMmuGvXhpu24ZP83ScIGQ1Fa259w4t2W2Gf52rDCz5ikf/UdbR2VWtQteuQujtvkvtdsYLf16xP7SHU2F51V2yW7EwerbEmSZCpt2IbPqXYJu9ajlsKNTyoo294od6KTyXZQ+/GgE/vtdStHKmL9htIbxJqh9Ibb28ljeKzl/F4XooTvzaS55AL9jFILhaHhG+ZBdSJ45T1kYa2d+qcgLE9aHqjxU44iEZd2poKB4l4CfDyHVDaQk4QUEadHn/1PRfXkz9tPoUeQq3A5L616yiQHaon9c+YAOr4/btvKZ+LHkKdm1T4XhIgDVQSHPdRlgQ5ufN9TWxvJdTUB79RR68XsV2qpwYOAra4pi3k2cFqkOPAT/70wHndMwdC2Id2WGq7pZg+hxO/NpLn4CNAQOVLweyQI33kzTFt7/TjfCYg126znYsWO8mJBLHbQiNCiWwJOfpQYyg1Ctk6OwSNGOaih1DDSbxr15EA8TcfJ2kUpUfojB91WEvRQ6gd1Lv230G4fmlaj+PewMUtOXLNNXXcSqhV5xwc8V2P+STaaykf6FmnFo6ltkddzw1s9DSk8vgI7vhZIp8dd6nNzsGJ33qScyASQslpDgV8PuppRIoxXKhFXo8YW6GHnVKo/Xvt2llmSqh1fKnNEz2E2lG7DvXC14w6qC9/aeBA0wr4Wo+T/E0RA7XrT6G3UPujsENTF3pk1jtMQN63JtQlMZmDrYRayLjiu5728KeeqDiec9nUydtxC1o4ljpBOGWMOfCp3j1DeT5rcORTWBqECMq7FCd+60nOAddO0UinCTJAirSDXqrUILhHz8epRA87uehiB0TpTW960zFxbf5m8FLGO6ApoVawlJ5iLj2idtSuQ71y6oO8+dgJxCFFDNSuP4VeQo2/EN5STNYgjnnfmlCvfWq4tFAn9MRUir+edWrhWLItda6NqDXto/Yloc8pMMqn4Jfa7Byc+K0nOQcpNIh0NjSgOc0Uaf1oJMjpkM4RNDxS6Hqhh51cqPWCGiWuzd8UqbSX5i9lL4f4z7V5DZcSamyR88vqZKhv+h0xzPlb8qYd5qCHUEukawMPQP0ypuEo/3mHCi/y6ncIgTylH7jO4dJCnW1VQp0CRZ6eg6pWjqkbOXUowEe+c2R5fFfqcDN25+LEr43kOeA8Lc/SiFnOfMtb3nIkSOI4y3Y0wtToEtL6b8ZqGBDWPLbPl60J5rnoYScX6oRf+2d/9mcPP/mTP3n8LCGSncQfeMemHhxwjNG6yjC94A3oHLYW6kcfffTwcz/3c8fPPmXFX4kuAe1+1/wvPPzHnpwHnIseQo29iW2PWdkZjr/wC79wF6eqL35SnFLvbBtwlZC1cry0UNNWxcdjlc/OpzZNtBatHKmL/kO4D4CeeeaZox+BRs7Mu7u/VV6xiu+kcbpWqe0uwYlfG8k5YMRBhXGWV/SFL3zh4d3vfvexgfroUgmiEmvqyDWyh+IY5wjmJWK0FD3shB2yNxY84H/kR37kXiDTuMUzf3n20bjzr9l8DnoLtXMDL3jBCw4f/OAHj5/hgO+4l6+OwO86nk9aEnTOYSfyLkWrUGPrjFcS9fzc5z535PgzP/Mzx7xeXzipvvzFT/jIO6wsMzVin8LWQg1Xr5vaqvj49AF+xb+K1TU+q6GVo2JN9VYMfuhDHzr68Qtf+MJdp5RJ5Z23x6pr1Fo/nvi1kbwV3JKdegv1NaJVqJ8P2FqorwV753hPqH04P9KD6Zbs9IpXvGL3fL/1W7/1nlDn+T0ke0XmA+f2lPbO8Z5QjzTSSCONdLXpgQMjjTTSSCNdV3r2w8A0bslOY456Hxhz1PvAEOoFuCU7DaHeB4ZQ7wMXE2qWMrFGmjWIU8tyWM5DvnytI2UoyzktQWNdo/9beqWt0MNO2kbsEI/k7JD9nL/A8h+O5+afuTYvobdQ13Z5gZIfBZZJlTh4PNTWpZ9DL6HG7uf8B+SnrK/4T3FMn8/F1kJNvXLpp3xGyrhT+04btKIHxznt0H2S7U1xkH6U35XWcL+IUGvBv9Zc1jalsCZRO7P4q3c+aAE56xi1nphjEPbdP1oHuRVa7QQvyrujtElHnEvvbcbp4k/yTT7Yk3LaRKE15lpoz/Epm9fQU6i1Br4G7dB0XwLspLiBo+9ghI92KZJnTfD3EGr5j0bqMZugropt5Qf8dY5ennzYBh/6ZpEl2FKoiUt84mvkva0rViVa3r45nkLXglaO8gu2po6l9c5qh5xTfsWq2pg0jrYn3tr7obQmVi8i1BISQYQcvhtIoE4IkrZjClwrnYxRam8u64UWO2EDLfZXHamzBzJ/yZeAr29+IRBI5Od6Ko+t1FGlzbURYy56CDX1QXjOCTV1K/lNjVqQwGkjiCCRW4oeQs19XUBL15F4CdSfWAXJEV7YQkIgSECWYiuhpo56EZELtXe0gHPwLdkgXx3QglaOvslF7TKfYjLOnJO3Q6BY1bVaceLXRvIccsSTziwBI1En/sqIGCofKwSu13NLagktdlJjpLxsgSMJZE1R0KhKIDjcXpSXuHkjAVxfnd5Smzt6CbXqMHUdzumRWK/FBLW4SS7kmbp+DT2E2oGPc7AB4Fbyk/66IGhQUuIocV+CLYWaelNH54YNEGDaqJ6EiccpG/RAC0dpjUMdzBRywOBQ+yMh2rXpkrk48VtPcg4yGHFu6dHCocc+QHkMp5Fk9nYaWWYP2Bs97ER5iQ92oPHpEco5O3LEOSXUXEPClSKXeafQQ6gdteuokVA/Gjl11OM/x71Trgm18i5FT6HWNUpz8dQ1R8OK17yvuOVTJGKXeedgK6EWMq7wl/6jD0nvvyi1+Z51auFY6ujhlDHm0BN8SXjxnZ6GuIamgjSFteTJVjjxW09yDhSUQqmhCXK0j44p7+Qk2EJODWyFHnaivAt1Tn2krcASodZxvw9Q45+LSwk1cDGWDUrCdM1CDfBbPgWAmlCLq0PciG/nWBKTObi0UBNjijP4SfB6+ayGFo4l21LvUqcLiM3S+/KBRDpjWlg75XPit57kHGiUJ2QQChLp7HlLj/EeHJoP2ho97ER5cdHUhyO5ApzvQUM5Gj750ulcH8FIcS81lClcSqipa/5IJhukLRQ3EjJBeZeih1CXfJV2Tj+7QOfToX5bKHH0Oeu5uLRQZ0elKQ89LQmlTqoFrRyzbLYfgVgtvS8fPiwEwH8uzOR3/3LNNXPWJ35tJM/BhVmPDNk4JdJpAEDwe9D6D2VyuBtnK/SwE+UVANQZp8kWGpElF2ziqwH8Bygv74LlTx2yeSnwathaqD/5yU8e/2o+XZz1Aw3fXfQ8brIMeZY8LQg9hDo7E77LN+IoP6u+/sOgd8KcL70eE6Rwz8WlhTp/xFbbzdhe++NoDa0cfbCXdZUfOa459wRcSjEIdz++NlZP/NpIngOEMQRio3+7JHzpl37p4a1vfesxuL3RKNEIKE8wIOQkf7RY20OtQQ87iZOgH6CwjffUr3rVqw6/7bf9trt8BIL4Ywvx9/L8VRBN2XwOthRqXhnJ9w984APH7wSzc/AG4xxcqLKM7LEEPYRaPyhlHZ966qnjNT/60Y8ev7ufsnN2jj4ax2cc41w+Ts/FpYVaHQx1zlhFnEux2gOtHFVvRsXeDt/znvfcXRd/eLwoUTaPkbCN2mFJu5bgdM02knOh0dBalB6TL4kt7aQOaQo1/pSrlV9r895CndAoRYBbbcRP/XPeHkyVmYMeQg1k/6xjcjznpywPWjluLdQ11OJONuiNXhzn+HENav6di4sK9fMdt2SnrYX6GtBLqK8Zz5VQXxp753hPqEcaaaSRRrra9MCBkUYaaaSRris9+2FgGrdkpzH1sQ+MqY99YAj1AtySnYZQ7wNDqPeBiwk1v/byv79KvwQ7OE++0i/j/CJbKj9Vpid62Im6Zj1V/3O/CsOffAnK1fjXbHYOvYX63C/9NR+Ks5Kfr5WZi15CLftP+U95lNwnU21DHNdiS6FW3Ur1BqXjrT6roQdH+WHKj6DWXqfKK47X8r6IUFNxreVlraL2/ydYd8h5rZFV44actpWzDtHL65r89fWpW6DVTtSNNZouWlpbKs61HZbwZk2q1pPL4VqfyzrrtJlsnjabg55CrTXyNciHsoF8SNzgU/Em6Zx4qWypcZxDD6HWOmrVPXclCpx3H2q9tWLCbSCIo3y7ppFvJdRqq6p38oZX3lM22qKttnKkLs6ntPEO4DuPO7VXlZevVF7tUBtiPL6X4CJCTQV9l1ypsmqUCkbfduvlAeW13tHLECw9dzslWuwkQaa8CzXfS5wduf2Wz9r9BX+JFOX1hrWazeaih1DD62Uve9mxjrXrKMC945EPa/ZQGWHtbq8eQu12hUPtOvAo2T932cqf5HWO+NL9ORdbCHW2O/HmL4m3xKXPs8y17Ux00c26CtkO/b0diLeLs+yBzzw212rUiV8byXNIkaDy2QMn3JEYoVQ+nV3qxXuixU44iwCgvHPxkUUGggBHt5fen8B1sI2D63OfNTZ39BBqeHFPAnrudTyQ+UzSY6PncdHivDqoJegh1A741nbJyi85VaDjgjphcRfgmO91mYMthBoBcg4SJo5RT2I9Oy3FbJbphRaOpbqk5gD85L7ivPyd5dU+sYmXqbXxczjxW09yDjIYMwgdENN2ahmK8m40NdTSdbbm0Xr95ILj4CrO+aQBcjTGZ46VRpwEDufzPilu59BDqAXVZwrwRoiwgUYycIOPpg005ZN+X9tB9xRq6krd/T0XgupHHj32a/SV91VcZ+c8x4YlbCHUCThlHAK/Zyn+etaphWPJtmpfUyAmNZAolU9tInZrr0Y9hxO/9STnIK+dDc0BGYjjVI0gKO8CRlmCo3SdvFdP9LAT5SWgcFXjTs6OmlCXemeNpLlPdo5LpgcuLdTyO3WUDfC5+7022gTnrl9CT6Gm7vjDp6IEuHnj9I4l7ytu2dDn2LCErYVanWhOEwC/Zy+f1dDCEdvSDh1qXyXAlYGV2lPJN+k/YkK/s63Bid96knPgj/eg5LQSNDrMx3iVT/EpPcL0RA87UV5cSkIrzo4MGo2kJdgOrl+a+phrc+HSQu0gb+nJQv5OLly/NuUwhZ5CLeRIuAbFAX9d5OBX6ozIm9Ncc7ClUFPXmkgDvyectmyrLRw1JenIwZFAvVNwS1y8PLFcejXqEpz4rSc5BwSvVxLn5vAfUj7PKPIYEaOUymMA/8HFf4jaAj3spAYK/McI4JwdGeSMYjim/Goo+hEE1Gw2F5cS6poN+JudlkQsy6z1ew+hTn/5j0oC372+7qf0i35opwyjNiFjYC62Emrqcq4+fs9sq3Be47MaWjlSN/kx25UgkS5Nb+WPyv662laRBid+bSTPQU7i12BeI+gjg4ceeujwxBNPHD/TC3GefBhEc1pT5XG2yuTSt97oYSfKex3hovr74xQN7Gu/9muPn3E8/FlBoVUUCiJNl8hmCogpm83BlkL9uc997vCCF7zg8DM/8zPH724DbwhwEQeWF/rozctI3Jaih1Az6pX93c6f+tSnjhw/85nPHOvMcTiQjwGJ/KSnAZV38UqO2YHPwRZCrR+HiVdP6YO8Z7bVJQOHc2jliD+wd2rP448/ftQogK9LvAFcKM//RuSYysNZv0Ep5Vz9HJz4tZGcA4KMBpg9C7+C03AFzmOQdLqXz54OI1FmTSAvQQ870TBr9XcB59WK73rXu+6+UwbuGkk7SuXBlM3OoadQc++s26OPPnr4hV/4hbvvNb/zneNwTA4qs9bvPYQawE11FHjnNhy/+MUvHr+7/5JjrW2oTAvHLYSausA5U/onfQ62aqs9OHqsCWiTVhxxPjk7R5V3P2ZeUvp/Di4m1HvALdmpp1BfK3oJ9TVjC6G+Ruyd4z2hHmmkkUYa6WrTAwdGGmmkkUa6rvTsh4Fp3JKdxtTHPjCmPvaBIdQLcEt2GkK9Dwyh3geGUC/ALdlpCPU+MIR6H7iIULNsh/WDrAX19xwkOM6aQ9Yjkt8XoPOd41meZU1cl8Q61Vwi1BNr7USdWD9K3Ul8Vj1ZqsO6WuoPx1r9WXup8qylFlSe42kz7nPO5jX0FGrqOHUd9ztctHxpKm5UhuNLX+Eq9BRq6krdS0vSgOqbfj7HUcfd50uwlVCzhE18arxzG3XNBj3QypGYY/20+JxbQsf6aHHmr8eRkrir7XLttX48XbON5DlQYS3kxwBUOtdR4jTqIAMhwCqjbcOAcuTTrh/Iy+HkL+0a6oW1dnL+QPWk3gSucy7t9lKDJT+JzwoS/+w283tiq5LNp9BLqGnQ3Lt2nYwH8sMJEOCyh+KDfOLjfndBmIueQk09qVNJsNLPvqvPY1u2ID/Xydhe2tmCLYQ626rq7SAWOSZuWQY+pVhfi1aOeo8M8BhMEHt0Mtyr5GvgvtO15EcGI2v8eOLXRvIcXEyAtgI7IOK9GAT1HguOe+9LAHBMYi3QsNfs+pmLtXbCMS6SElFs4jsGFcyJtBflOaaAELw81/WF+3mNc+gh1NRPDaB2HfzngescsuOFK/nFX/BYWYJeQs39qWvt/RBZP3U0IDtQ8mlTiMdyXmMuthBq6ptiw/VduIk/OEioye/1x075IqQWtHBUzLnGKNYSismar7mGP2H44Al4x7wEJ37rSc4B106hqlWWfLVtwTib3ix7YvLxSEFwZJme6GEnORIu2CAbnwe8kEGhRltqvJTXo5hfZ8rmJfQQakH1mQO3iRo8vmUaR8KVXJZc39FDqIlXjZjST0J2LED3y/vq6YBrJcc1wraFUCc0/QiwA1MI6lDFIX0GetaphWMpfmq+FGrn4ejCrLhgeo445rN3CHNx4ree5BzktUtOEwh8BWrOPRIQNFaCwoUfg1GG49nT90SrnXCQdzQuSgLXzwDIoOCzGnKtfNZzyuYlPBdCje98hKkpH+rtr9PMqQ5EYc71Ez2E2n2TfhJKttf98r7KWxLqzDsHWwu1fKZBAX5SvZ33lA16oIWj2pOj5kuhdt5tAfhMDMsupQHoHJz4rSc5B1zbe5GS0xJ6HCmRqk1xrG2wc9FiJ400fGSVj4MgbQUyKM6NqGWH59OImrrlE1FOC2j6Jrlw/ZwjnYNWocZ/PB3xBKiXLTG4yAZMXeeOqPVonI/IXNOnyeZiS6FOkeYvo37ZQy8h0tNjttmedWrhiG3zaSXbXKJ0nvaYPsrfFkptfg5O/NaTnAOJSu07gHSOoKkTzoesN2AJNaR9DpNGvSWPtXaSSOccsXpbwecuHT5K0XfSVPm0cQbMOVxSqBEljZYdlPFjsgM8/PFSc8RL0SrU8FKnodGSfjvIfP6aU/ymBp0jLI6TP39YTs5zsZVQUz/q6h2pnoaViEESdcdHboOSqLWglWPGWg4SEiWhzs4VZDukzNUKNY7CSbyFitcAuhi95CUvOXz84x8/GonjnCcfoi1CNFB6Zo4/8sgjd7+ga36QYOTc2lcIzsVaO9HA9CpMJYkmHMWZPHL029/+9sOrX/3q42e4Yht4knzqh/LYSjZTeTUEt3kK4RS2FGreSIbfn3766btzzN+5fQCBL27wlt8zVrBbdvxz0CrUCW+8vN4Ujp///OeP3/FZyc/89bYh8YKjYlvcUxjmYAuhrvkshU2CLaQNlgwczqGVI7rh7Uja89GPfvTw8pe/PLMXhbp0zNuheOeAbQ5O/NpIzoFGPTQ+dyjvXEaoAcc5D2HIuLDokYHzPgLBMBxbOmJcg7V28lGGkuoKR4JEnAUXagBn8fRg8PLZm9dsPgc9hVojLYHXm+J3CXXaxvPqF/b0u+yRI5Yl6C3U+FR2RqjhKKF2P2WcarQMH4959/lajlsJdfqLlDFGvlqspg1a0YOjYg0u8kNNqN3XQskGQO2wxY8XE+o94Jbs1FOorxW9hfoasYVQXyP2zvGeUI800kgjjXS16YEDI4000kgjXVd69sPANG7JTmPqYx8YUx/7wBDqBbglOw2h3geGUO8DQ6gX4JbsNIR6HxhCvQ9cTKhZusI6Z97Z4MusHBznPPm0llZgWYt2OmmJC0tkdMzTVmixE0t/VD/WggvOeeo1rSX+gPyUk828/Byb19BTqLUs6xzwZy7bqnFwu7k9l6C3UOcSQof7n+T2cI6+vIulbSWfL8FWQp1x6+v6nadznWrfrWjl6O1oqh0K+Cx9LR9nrEqnOL7WjxcRat/FxOfS5gu+s6hf66f9fQ5aNE55glfbVvVdSetqt8JaOzl/6s1nOPEdzjhSYua7twS4aQeb+KthcC2t34S/GgXXPGfzKfQSauoMp3N+ob7cy9dQ85k4oN7iABQr2NDtuRQ9hZq6co3c8CBonbxiVQ1ZHOUn7TTlO5+VV5+XYguhzrYKB8Wtt0fFquJbsQ43fJadcgtaOdJ2tN+AvwhrDSVf0+60Dh5eitWSdpXWWp/DiV8byXPIhlRykgJVIL8ad25qkMg5COalYrQUa+2EE92pOBqncixHmqXrk9cFjDIkNWABm1zTFnL5RJscalAHmzxzExDXwmYcI6+gDSNL0Uuo1VlQ35qY1mIzt5BLkBUjApzXcNxCqKlvKW6Tn8QLSLAEvpcGJWvRyjHrXxNUbVyBi/s6/avOCZ6eb+1mnxO/NpLnwLWdNA70BumAXG4xpbwem0ilxpCNegv0slOtrjjVhVdIAaCsHJ4CKFvLZgL2rtm8hB5CjS9J1D3r6VBsZB3VuIkHHpXV0DN+uH6+VGcOegg1/OCGrdNPAvyoX+nROu/LNTTKTo5TNqxhC6FOaKTo0KBBPNO3itFeaOFYqv+UL/M8fzUYRZ98KsjLMUVX6wDO4cRvPck5yGun0xwKeARLI0LKyzB6rHAR4nhJ4Hqjh50YYeDUHH3Ap/Y+hwwaNVpsmI2X+nE+6zll8xJ6CLUwV2Syjj5Sxb/6N0biLpT4zkEPoabTUKebfhJcxGmkerQmBvK+6oTI7535Wo5bC7XiNkeJ+XSUvgU969TCsRSfNV8KKdTYQK93KE014ldiWX5fihO/9STnIK9dclpCPa6C2R/jc0SVQbEVWu1UE2l1NBnsQgaNpoU0snZQP7edMMfmjmsQak11CFwDG6W/yZMjojloFWr8wKtN/YU7vHTo3IhJMV0Sao2kS53RHBsmthTqmkiLl9shfQt61qmFI7bNaZhsc4kU6mxvOd0rYIM1U1gnfutJzkH+EKIG58DpeYw6aR7Wy6fTc4S9FVrsBGf9MOYoPSEkcn4Z7pr39gDzhp9zaIhb2ncK1yDUeW+dF3/Bf89Yglah1tSTEn4s/f4C/2y0atj5KCwBSFtwzTUNfCuhVtyWxCzno0HOsVMu87SghWOpw8zfDhIu1KVpHM5jB+zk11kbqyd+60nOAQHH3A2g0v5Y8NrXvvbw8z//83dzWiIFQU1neHnK+f8k0/UugbV2QlT0Kksl6i0H69WPSuBjH/vY4T3vec/xM7agPNyTv08R+Y83aXNGPtlJTGFLoeaNcvj9i1/84r18KU40ZD3+izdcPVY4Ds8UxzloFeqEN95nnnnmyBFwzAXZf1zFX3oPu7cNDVDk87WvBd1CqOFBPGXcKr7Sjyrj4pdz8K1o5Yg/FGuuPXB6y1veErkfHHF7efdjahdTH2t4X0SoqSDBSeVdWL7whS8cvuzLvuzw4Q9/+PhdP6ZRFxzpPRHlOcc1fO6OPPkL9FZYaycfdSlR5xyRKYFHH3308Nf+2l+7uwbOFX9vsPBH0GQzNZaazeeip1Cnj372Z3/26HdeBeqAl3OjccOJOuTUkBoT/Nb6v7dQUw/F7Ec+8pEjR2IceH3TT4i1/OQx34PjFkJdi1vVXbGd0CiauviKlh5o5YgfFGvO5d3vfvfhhS98YWa/52ug8qX25u1wjUiDE782kreCW7JTT6G+VvQW6mvEFkJ9jdg7x3tC/UM/9EMjTaRbshOPtXvn+83f/M33hDrP7yExgtszP6W9c7wn1CONNNJII11teuDASCONNNJI15We/TAwjVuy05ij3gfGHPU+MIR6AW7JTkOo94Eh1PvAxYSapTm8r4EfqbQ0qQbO52sQa+X5zDHO+XKZLdBiJ9WfVNq5VuLsoEytPEuhOJ6bD2o2m4OeQs29S8u1EvhvLgf3e9pjLnoItftFqQSv7xRHh2KiheNWQj2XT81nWaYVPTiqHc15ba7W85fA8mE/N9V25+IiQq310RiCtYZTrxAErDv0+mjDgMr7bjzWZWrdJnl6B4BjrZ3gr/rrPQDZqbCutHZtbRagLL/iazE9oJx2Lvq21SmbzUEvoaaebOjQ+vAasAebKHydqXa4ZdxwTfiQF5vk+uO56CHUqqM2edTWyZJHu0M9TlWev3D0zRGyhziuaeRbCbXandcfTMXdlm21lSN2VqypnjVQ79p7efAV9dA5tV2uq7a7xo8nfm0kz4FG6iOqqYalgPX6SIgELShXkAi5TbU31toJ/rkA3gOhxNmR+WnwcNUOKIHgwDagZrO56CHUBCS7CX0jTwkSIursQucCABQ36We+r9lA0UOop8RZcL8A/CJ7pF/UiSfHjIG52EKoqZ/bm/qLT8adfJhtVULeC60cXUD5y7VKT6HaeEZKoaYcHEk6R373G3byDXtzceLXRvIcknQ2SIE8GIC/Xh8+u7BDvDSCUU+3FXrZyV8qpB43OTtwrgcFZdUgUgB1jZrN5qKXUFNvUtbTQSOGf/oz760gTy5cf+kTA+gh1NSJuujRtta4XdgkBCDvq0FNtpFzNqxhC6F2wJenAIlRjpS9nSafnnVq4UhdfMADXGwditVsk4AytDk/p06aMhq4ZLk5OPFbT3IO8trpNIHg1OjCy9TK53W8AWyBHnbSY596b3dq7doZFBrBwD0bL9coNYK01Tn0EGphrshkHfPeOi/uQonvHPQQanxJ3FIHbQVPsU5egPvRqPO+7lcfmc61YWJLoZbdGRxpUJD3qbVVkHlb0MKxZNtsc4k87/zynJ6WSZraWopT+fUk5yCvXXJaPr56mVr5vM61C7VEWkGt0aFQu3Y6/pxQl+yQtjqH55tQ54hoDnoIdYoyo6p8tE1eoOYn96tPicy1YWJLoRaopzqovE+trYLM24IWjiXbZptL+Hn++rSOn6N9a4oH++ST0lyc+K0nOQcKSiHnsQDkvNEoqRH6Y7zmaCHsQpcG640WO1FPPRoJNc6JbLTwxgY+NyiofM1mc3EtQu1CyDX0o0wK9ZzrJ1qFmrrpbYeCT2sJOQjx3xbyvvJ1Xqfk6znYQqhpy/kbE9fHDzl369OU2VZ93r4VLRzztx4w9TsacDGGm8eRkuLS7bE2Vk/XXE9yDhBmiQTBzaOShPujH/1o5H4WXh8PWsozz6Ng0fwPkIBthbV2gjsinaOvRO3alPdHJgmWRjC6LvkUBDWbzcXWQl3yewpwLW6yQ147SmkVauAdouqo7+Lov0MAj1Ps4hw1MsW/vjrKbbEEWwh1tjsXulLccT7L9G6rrRy9g1Fdp5AC7PBzGZtreZ/4tZE8BwKVhkXg4TgPTO77oQ99KIvcq0+Wd+L00hiVc3PEsAVr7UQQuyCQUriAX/vlL3/54Q/9oT90/Awn8vODGckdTYMWfxeNKZvNwZZCzStAue7TTz99L18KtRqMOPhTGDbgGPZY6/ceQu329zq+973vvXdNYl75SiKX5QEc5XPst4bjFkINvN3xV0981NHjzkfRW7bVVo4a4SefN77xjYdf+St/ZWafLdTeDlti9cSvjeRcEJQ5qvv0pz997/sUSuUBxGtG64lL2amG0iMnmOJfs9k59BTqEnr4vWaPuegh1ELJ/snxnJ9KDbiV41ZCDc7xKflsqkwLenGkbiU/tEJPFWtxT6j/9//+3yNNpFuy00/8xE/sni+jJRfqX/zFX9xd+r7v+75d81PaO8d7Qj3SSCONNNLVpgcOjDTSSCONdF3p2Q8D07glO209R30N6DlHfa3Yco76mrB3jkOoF+CW7DSEeh8YQr0PXEyo+SWVzQFzf/nMX4b5BblWnry58WALtNhJ/Ev1FLfSr+SOGk9swvH8tXqpzR29hfpcHWochNKqiJo95qKHULtfa/4F8rGS20PXKPm/leOWQl3z2VTc1cq0ogfHue0QkCc5TJVv9eNFhBrnsDaRdaH8PfcWMNacen20xlHrMFUeQ2mNqa6dxuuJtXaCPxshqCML4L2eWocLJ9bT5o5NIJ6Uh6tvfmHdsdtWjcPvyXFeNboEPYXaN+KUoDryN3dUAgI/XyuJHbkmf9euTe0h1No+TV2USuA49VQexbDahmLbN7V4fvy/huNWQq1YVL3lM2+r1N/jjjIck59LgrYWrRz1egfVrdQOBbUtj0e1Y9qjl8dnrCeXvdb68SJC7VvGqeSUkzACzvT68N0X1HOOv1zTG4a2q26FtXbKLfM4jXpiA+1EAzhe7wVw5G4m7MH1KC9bAN/Nlrv6SgI4hR5CzX3pVCRkJaQN4Jo2gC+NQA0DnhwTZM+l6CHUuUmnBupfinn5EkzFNhyvbWeiQF3ls1JbhXeWyZhuRStHbx/EGd9LgCsizXnFo/sNwB9xBsnT/b0EJ35tJM/BSQACsBZ0EMFgtfqkODnWbrOdi7V2go/XVx0KDsOJnJt6HMRe+a4PrpGNWQEDUpiX2qaHUHN/6kpA14Q6R9vyryAhJI8aRgrz2vdg9BBqdcJT0x7eUeajcd5Xvu7FcQuhTqQYCS5gilkBX0rMeqCFI35JYc72I+Bvjns8JvCVOiXi218FcPVC7aiNfP14lgEYid4sBQfi2mq7JXrYSY9NEjE9uuN4nOuCLHDeg0LCpfIONYyspwRvLnoItTAl1KV66Z56ugLeMMRdWNvoewg1PtMjL39Lr7GkfvgcX/mjNcfzvuKWnfOUDaewpVDjH9oc3HKQAU9vq+nnqcHYGrRwLNl2SohB6Tw2QJRzWgS/YydNgazBid96knOQ106ngTRWlgHkUW/lhmCEovLn5r9b0GonibR6VGyQUx/Zs4Pkq1Eo5ZMv9duDUMNBT1cghdo7a477Y/Vc9BBq4tFFqtTZ6tFfkJ/PCbX7fMqGU9hSqOFNvRCfHCSprYpnzc+90MKxZNu0f6J0XvYgNtWu+ayBFvbwqaElOPFbT3IO8tqlx3CI42x6JBJl+Ft6/KiNyEuB3xMtdlIHk1MYGSCl62dQUI7GkVMfQOX56wKSj9LncEmh9lGGOhnig05N8cBn4kPTRc5l6vpT6CHUCQntOcg/eV/5OtvIWo5bCrWD60+11RRq+KzpXGto4UhdsqPJwVEi22RC4pz51k5hnfitJzkH2YtghHQq3yGkRH34q/k9JwtRgpgg8Ebuc0NbYK2dqHtpzovvXl/9sJaAp4+cNS9Kfi+vHtvzCCWbT+FSQp02gAN111OSErzwOccl1kLaZy5ahbr0e0mpgSNQPkWleACen+voVa5wTY45uJmDLYQaH7mwuR2yrarDyTL+A2QPtHKk3vrtoNYOHS7Ayq844C/THIp7b4dreZ/4tZE8BwUm/1OOOTwF4Gc+85nDb/gNv+Hw5JNPZpF79YEcAU15lvvQaDGGAuNlL3vZ8RxBvuaxYi7W2om64ziNDkkSFmyBTag/gazG+JrXvObwjd/4jcfPCgR4ksQ/yzt/bC6bcX5pcGwp1B/+8IePfv/85z9//E7dnEMKHfCGAXdsIHt4I1uCVqEGeuyn7vhVsf3EE08cHnrooeNnxSmxm37S9ID8r7joxXELoQbUrRS3tbaaZZYOHM6hlaOmKJLPY489dvjqr/7qzP7ASBm/4/+MA2+H+HEt74sINdAoIX/x/IEf+IHDF77whXvHQDZWyDEySSEmCLimRltbYq2dNCr0lHOWcHPOcPlv/+2/3X0XT5KP4AA2oXzyr9l8DnoKNfV1vp/73OeOfnfUOAiUd97u97THXPQQaqDYdP/B0VeBTMXpnNhey3EroQbyWQpPjQ/gWMkGrejBseTHz372s4e3ve1t9/KBjEdQs4e3wywzFxcT6j3gluzUU6ivFb2E+pqxpVBfE/bO8Z5QjzTSSCONdLXpgQMjjTTSSCNdV3r2w8A0bslOY+pjHxhTH/vAEOoFuCU7DaHeB4ZQ7wNDqBfgluw0hHofGEK9D1xEqFmSwtpC1imyHvTccjGWuXh9KK81iFpPDFgK4w1tax5rry/+qr+/+lHrTrENeWrLd1hfq/K+8YHyrMvlnJfPe56zeaKHULvfSxtBBPkxOaRfSdrdhj3g5fGwFD2EOjnW7DzlJ9btaq29L+3qwXEroa7Fba2tehlS6Z0oLWjliN2xf8kPCfnM4xnNohzrq+HtSxPZJ1CyxxKc+LWRPAff8osBqHBNkDgOKa+P70DU+ZIhMYhvU+2NtXaiXr5zTjsr4cL1tKaUuvtuNIEA14YR589nveAJePklNi+hh1CLJ1AdEgS7161mA+egTQQqk7u/5qKHUCdHrpN2zp1rHqdeXrz8M2Xk8zUctxDq5OPtE17aXKV6wyXL9G6rrRypp8QVf9D5lAAPRJp7uVDDTe3Q44BrpT1K2nUOJ35tJM8BEr7AneAsLYYHkMoRdZYvLZbHILVtyr2w1k65wJ8A1cJ4v54LsiPtpfcncMzzqzEADxywVMx6CHWKFqOvHFXDwzsx5+DwhpRbxuG1dOclaBVquGVdU6QB/vfOBxtoO3XNRt7RAm/wS7CFUFNfjy2vW62tZgecsduKFo6lQQTXKukM+VR3xbI2tGQ+bWTzWMW/S9qhcOK3nuQc5LUhWepNIStSXobPnGP0SHr44Yet1LOBU9t63BM97JR1hS/2YIspTiz1thqVCNhONszGq/plPbPhn0OrUGcnBHz0KGQDhmeWE18h44cyaxp9q1DrvviQ8jz6lgYg6pgF2abEVR1qds5rOW4h1AICpVcaKG65j7dV4hqkDUrcW9DCsWTbbHMJF+oEftOTEe2dvNiJKU8+lzrzczjxW09yDvLa6TSAo/29ACpDMPBZjVkjLjfSJUbToNVOcGMk5dM4er8D9qj1tmrUggt12lH1y3qW8k6hVahLDTEFFsifNGhEhTxZLhtNNpJSQ5uDHkJNuZz6yJFYyfbyad5XNurFcWuhVtyKH/fxtirfpe9LHXkLWjiWbJv2T9TOc8ynNyTaGoTWBmPncOK3nuQc5LVL81P+Yh4SZdQbZ/BL2ISawPVGi51wDqLs9c5HYoS7dP2cMuAaGiHnfK7K53UuPaJWB+sguEsjTmyj6Yws56MTgVjxkXmpoc1BL6F2lDimULugl8qLz7WPqAXFrf66EIl72gA+Od3QghaOJdvm4CBREmo0KKccabvuR2yQT8FzcOK3nuQc5AR6Cg+ApDuU+sixWR7RUUOtidsWWGsn6s5jYHYm8PP5K1C6Po71suKPDf3VkdxHopaBVrL5FFqFGuR8ZfoR8N255dxlzkeDtFt2eHPRKtQuUELJzjmH7hxrNkreyXkuthBq6u91cTtk3GlQlTbI761o4Zgd5hxNSaGGT2m0nPFQ+x3qHE781pOcAxyFoPA2MeaXqTx4+umnj/M2zzzzTBa5Vx8v/8gjj9wLboyg622NtXbCMXoVphL11qMhnOCGLRS83/Vd33X4pm/6puNnjT5odOSljMQB7tiU8j5iR7xKNp+LHkLtftP8HPj4xz9+t0RRNoCbOPgIJEeWWYa09veJVqEGCBFPgrKzOsr3v//9h6/6qq86fsZX+M/9JE6UxxZpI00JOcecUpmDLYRadRMff42uBCvbaskGa3xWQytH6u9+UEfE9xe96EWZ/Z5QS+j1Glsljns7xBe13zHO4SJCDdSDYgCJDH//6l/9q8dXQib8MQlAjlETyXutHJFtibV28icFJXcyNsHx/jj/oz/6o4fv//7vv/te448NVT7tQJm0+Vz0EGoAp6zDJz/5yaPfBWxBHlI2XjiVBAobYItSmbnoIdRAHKmPOH7sYx87vPzlL7/LIz+TLxuqfmMhLtxPPThuIdSgFregFqtTNmhFD47yg/P5wAc+8AA/4HGJb7J9k3Re7RB7rPXjxYR6D7glO/US6mtGL6G+Zmwl1NeGvXO8J9QjjTTSSCNdbXrgwEgjjTTSSNeVnv0wMI1bstOY+tgHxtTHPjCEegFuyU5DqPeBIdT7wBDqBbglOw2h3geGUO8DFxNqlqvwRirWXJaWWwGWvJBHKRf8q3wuz1P+3kt+Ei12mqo/xzinnZglyDbk9SU+U+Vr95yDHkLNUjPecUAdWGNaWyIIH/nQ3+NCfsqpvMcNvm71ey+hnmNnYln1JSm2k6PbqAfHrYS6Fnfp81qs5/t6WtHKccoPJeC/XHoobqlxig8Sa8vX4CJCTUVZRwh51iTmlmBBaxhpuCQZolYeY2gnFJ9zu2ZvrLWT11+bV/hM0o5F1Z+8CThxjjyUh7MCgc/YJMvXbDYXPYSaYNbaYgVrAh/rjWRwoM7iQDxI0Lw8+fS+F9ljzfrUHkLtHPFjbVs0vuF8xrbWG8PJOTovxcwajlsINXXVJiN4u8+0Xpg8+FSx7mW2aKutHH0du3xSA+e4l/tD7RB4e+OaarvSqzW8LyLUuf+91rByO61Afi+vbZkYwQ3ae1tqYq2dctOGGp0EWOC7bwkXcjMLnAmGLI+NFCA1m81FD6GmrPPOOgF86E9O1JHdWzon0IBUlyyDLaYaVg09hJpyOQoujcZq108bqa3Azznm97nYQqipn8ejNoqAtAftkbzpo95ttYWjOn7BYy1BDOMHb0/YI7lQnvM58s7YnYsTv/Uk5yCvnbt/AMYinx4//PGhVF4jRm/M3si3QKudcJheZwrSabUAyY5NHZRs4FD5vI5sNhetQg3XLOvbboW0QakcZYgHNfSMH85LKJagVah1X01R5PSM5yMu4UBHrEdrjud9ZSNdV+DzGo5bCLUAB67vW+K5Twq1fJxtlRF2L7RwLMUP18pYBfJvKZYFPSWWOuyM3bk48VtP8hxKDS8FFqhXgrwePzS6zPKUJaX4lAK/J1rtpJ5YDVU8HKXrZ9A491r5vE4p7xRahbrki/QXIJ+eMLAJYlYqR2elf2OUjaTU0Oagh1AjNtoarEfebKCIGLGtx1/y67eGfAcLPBht9uK4pVCrTj6NwffsiC7RVls4lmyb9k/UzuNfOuV8nQPA7+nvuTjxW0/yHEqjxHRaDZTTSNuh3jkFvxT4PdHLTtSbRl0Sz9L1c36SMhpR18rndZR/LrYS6lJwE9T4TQ0+ywmIoETMR5ulhjYHPYSaci7Mc6aYFNPky1GlbJS2WstxS6EWNIIE2IL4xlfE3FRbrc3nr0ELx5Jtz/kx/QOwQ+ktmUAinZ34XJz4rSc5Bzn3XDIC35OgGkGWV0PF8f7YvPbxcC7W2ol6ev0ltDlPhw00x+xIYVLwJ1+fo67ZbC5ahRqkiJXmqDXKFDivgM6OBQ50cPkYnXaci1ahLg0iSg2Y737My2V52Ui/QwiKmaXYQqhrbRVenMupj0u01RaO3m6EjN1E+lnXyDbGNZgZWOM7x4nfepJzQCV5HAJuFN6aJ4erV1ajxalyZJb3X5K5Fn9lkAygnlhrJ4JV9dejEQ5VJyTx8lHHD/3QDx1e97rXHT/DCW7kV68tzl7eR801m81FD6HWkwOAg/zO2/O0pEvxQN1ITAmojEbQnk9i4GXWvjKzVaiBOg/gdv7IRz5y+Mf/+B8fj8MBn8v++EYNt2aj5Ej5NRy3EOpsq8ScnmSdD/X1tqpY3aKttnL0WPMfR9/3vvcdvv3bvz1y3xdq+OjfjvE6UyWOo2N6zamS2usSXESoqTCBiaNwqCrKqyB/62/9rXevOdUjMPlwuAK7Vj7L5AisN9baKeufP4Sp/t7rfsd3fMe912TicILJAwpgC8pTL8rPsdkc9BBq6oAfqQOBrTo88cQTh4ceeuguH34jT/qQ/JSnDvkUJlHLMkvQQ6ido0bD4N3vfvfhhS984V0+6ij/4Uv3kzi6jYDmvElrfoACWwg1YKBRaqsIco2Pt9U1Kx+m0MrRY835ECMvfvGLM/ux/uKmp4NMnM9jpDXcT/zaSN4KbslOPYT62tFDqK8dWwn1tWHvHO8JNU4dqZ5uyU7/9J/+093z/ft//+/fE+o8v4f0Dd/wDbvmp7R3jveEeqSRRhpppKtNz34YmMYt2WlMfewDNhrLU7vC3jkOoV6AW7LTEOp9YAj1PjCEegFuyU5DqPeBIdT7wMWEmiUsrDOcer0hy6/83637MjQ+cyxfE8hyIP/37FuixU7iBn8t/QF8Vv1zsbxjqjzHOJfrbGtl5qCXUNf85nAbJIda+R5+bxVqr4OnUn3cT7lUckuOWwu1fOcQH1LGqo6nDVrRg2PNDyXQVks+4ViuD2dp5rn4OIeLCLXWT0KONYpsaiiBNYbatEESYb0jg0ZMeX/dpdYVa13tGiPMxVo7OX/fHEDgslCeY1qXWloTTFCz9pTreHnAZ2zGOfJI7HU92bz0itEp9BBq1ZW6UYfS+lFswGYO2cA5yO/i4JuGZDetwV7j9x5CrTqQqC/XKYmQfCs/KU/NRh7b4ri0swVbC7XWHgvuM6+3+zlt0AOtHKk3XKbaoUD9uVcOKvAZm1u0WQbAW2v9ldbE6olfG8lzIOCcVK1h1YQWA/px1RWD+UYA8k0ZuBVr7YSQJn++U3ff5MKx0tv/4OU81bDJr51sgGN6kRXHfYS+tGH0EGq/JwHLtdK/2vAj4D9tOCC/i5M2lKTdaGSlTuAcWoU6UYs//OKN1+vvbcE5Jyfyr9n0sqVQawDi1862DW+1U+wjpA9b0cKR+nqsaWBUAhzgTPI2TVsjPjnuviaPf1+LE7/1JOcgry3nOdTzcJzHg9oUiYIjgbHXbrOdix52on610RHcXHgFCbvgvbMHuwIOZD1LNp9Cq1AT7FmWOqR/qLMEHZvwtAWvWnlt73XRopGsaQw9hVoNtQT5SlCHXOOoxu0dLeXXcNxKqPGbRs5T19aAQU/KAhxL715fixaOJTHlWqWBjdpQxjKf9YTl11IbRdN4+2PpmnNw4ree5DlAIK8NkRx5SMA4rsePHCWpnik4lOE4jbwkgL3QaieNPnJOD+BkHue9cQoZNBp1pgAorwu2kA3lHFqFOkf7IMVHkP/wv78Tg+/KD39Nd5QaSTa0Oegp1JqmKCHjXW2CvznocKHuwXErodaIstS+BWJO/Go26IUWjvnEA3IWIJH+EVKoNQL3qaBSuXM48VtP8hxKDkmnlVASGx2vkSUwej5OJXrYCRHS1IUgEao1dDVqAdvRidWEWo/QjtpjeQ09hDpHTKXg1hOSxJk6+r+jwtdchzzqbPI6a0Wsl1Djv+yUHGl7tYlSvZ8PQq34A6X2DSTS8mu2ecpN2WwpWjiWnshqGiOkf4QU6oTmwpfixG89yTnIa5dIIsA5f0k5HJ155XQaiJfp7fzEWjtRLx/pu8CqkddEGuR8mEQ65/18bk22E7BZaTRbQ6tQlzqL5AFqnY3DGzvlc84e260J/l5CnfPJieQo0S0NRmQjzntMUH7NIGQLoaZubje/vqav9DuDULNBL7RwpC45qOBaU0/nJQ0DKdTZ9kuj9zk48VtPcg6omBqWxESV//CHP3z8CwH/Ic3na713o5zmojGKryDh+5oGOxdr7UTjc2GRPSTSpXmr//7f//vh8ccfP352IRB/dVJuS2/MLmacZ8Q+FXiJVqEGLszeiTzzzDOHN7/5zcfP1NFXpPhcL/nVEXt5YsPLwHWqo6uhl1Dr0dbx9NNPH9761rceP2sAIfv7CNsfsZ0jdvHYTuGeiy2E2kHd/dq1p1ry+Qg7nzJa0cpRv5MA1RV86lOfOvzUT/1U5J4v1DmocC1cgosItQKQxuWP+B/84AeP9/385z9//I6DESHyuYCp8XKc8y5aEKc31ONxjsp7Yq2dJMhZf/i6UPj1/8pf+St3AQ9PuGV5gNN1bReDvOfSRt5DqL0O/tSAgH3pl37pXT6CGf+l38mvuMkODdvI72s7515CTdmMuze+8Y2HX/ErfsXdd3wGB8VpyU9uIyC7kEriNweXFGq4ZCyTJMhq31rCtmTgcA6tHDUwzFh7zWtec/gtv+W3ZPbZQu3+bfHjiV8bybmg0ukcRh4OznuDdORjhFCaNtkCrXYq8V+CGs8pm629Zw+hFmp+c9Q4cLzUIEDNHnPRS6jnosYR1GzUynFroV6KKRu0oBfHWqy1Ym07FO4J9Wc/+9mRJtIt2emHf/iHd8/39a9//T2hzvN7SK997Wt3zU9p7xzvCfVII4000khXmx44MNJII4000nWlZz8MTOOW7NRzjvpacek56ucC1zZHvRX2znEI9QLckp2GUO8DQ6j3gYsJNb9cn/tX6cpT+rfq/GKq4wLnPX+e740WO53jf+7XcPEv5ZEd8lflqTLn0EuoxfvcygV+bS9xEEq/mqvMWrQKtcekp6wnyFh1e0zZqJXjJYQ6V0qoziV7tPKpoQfHKT8kSvFYK1/SrqW4iFDjHNYSai1pbcE360ZZY8o6RJLWC2MUjvOd49oIoO9KXFsbBrbAWjs5f+qp13U6dK4EHM/6c9ZgZnkd468v2ufvHJvX0EOoWf9OnahbrhF24Hf52ze5CHChHhIEAl9rUkm+LnkJWoWaenn8kbyeDs55bMsWbiP+6rhzJH/unJuLrYWadcN+bbjDw22imBT/Fp/V0MpR66jVXko+FOBDe/Q8Xh7+2gCltqv27Ru1luDEr43kOUBAFcc53KvkJF9o7vDA1vfMx/UwSB7vibV28p1r4u9ipA098CqBwPZNLgokuHrH5Dszuac3+prNa+gh1B7w8C11opzXLjAAT+dKnTnv18qt87n7ay5ahTpBvWsbGmrXr9kIPn6tbANzsaVQS5T92tTb/SdQd/cz3K5lZ6K0Q22S9ljrGLXBLMXcBxgamIGMZ2ww1QnUcOK3nuQ5SCQcBF1WVvkQH4LLhUzlOVcT4hSzLdDDTinUfFdHVhPqDAp46t0J3pjJQ8CBrCfXzm3OU2gVavhl2VKQauSvTiT9yHcah8cMjd4bkndKS9BTqCVapc5QT4QZ23pScMhG6a/09VxsJdTqQLG7X1v+4r7+qJ/CPBXva9DCUfZ2cK2SL+GB/zwec7AB1Mb9VQBcT69/WIoTv/UkzwESeW1IZm+qfGqoegyU+GjbKY06pw40EikZtida7QQ3uPjoj9EgQVsKFoF7unMl0kqlvFnPks2n0CrUPqoQSh00wB7aWuyvOcUuGjlnWY6Tl/RcbyEH1K82qpeY4X+SHo1LDVw8ky/XqMXHFLYSar1fJdu3nn6INT6rQ834o1xt1LoGLRxLtuVapVgVUqizPD7mOLHMOcV2LUbO4cRvPclzSEeCUlBDyMWIciJLeZ86yCmSHIVthVY7wUVzknz2x9uSs4W85zmhrtk8806hh1AnnxQfID9jF3xKHnwpP0u0vaweo8nPsed6RK0pqNpAgYGExyt11YvFajZKW5XyzsEWQu0daMYa390O+EZPRO4j8mVH3oIWjrSLtK3aUQ3nhFrnNTeN/zXFOXXdGk781pM8Bz3qOzIIa6Dce9/73gfK55u3aCRrHieWopedJLDUm55WL2xhtF36sSGd6yLtHZTPcWY9sfklpz4kXo6S3/ORWFMmHNMLukh6qtLox7msfYzuJdRTc9MliGPJRj714bbKefm52EKoM265dilugeI0/VwStxa0cCzVhWv59GvinFCrvPwsYIM1fjzxW09yDlxoEG6fuBcIRHc2+RXEKVQEsxoqx3v2zFNYa6esv3784pgS30tzuIAg99GI+JMQM4E8CoI5Np9Cq1AD/Odz8SlKIDsb+ZNybh+NzDiux26h9Og6B72EOjuORP6gpCcCULNRltHc71JsIdQZt1xbsZYCp6cdkndmya8VLRxldz0JzNEUF2oNRlXeB0yuVWAt7xO/9STnQI/7/AsqemBV9AMf+MDh1/yaX3P8DElIMf9MPoRFBPXIwHEm5n1eT49Vl8BaOxGkqj/8qH8+JuN05/GSl7zk8DVf8zXHz/TINf6IFsc451NCNZvPRQ+hliCpDhpR/fiP//jhl/ySX3L8rCkO/p8c+WqvZPWGIXtQhpQd4Vz0EmrK5hPdf/yP//Hwq3/1rz5+VsMVR/dTzUZehlSKmTnYQqgd2N2vTf3hoVhVTKt9i493UD3QypH2oXq79rzyla88fMVXfEVmf+CJx8vryQ94O2zhfRGhBgSmRpHCz//8z9/rbXAm3yGZZPhO+WzEHM9GshVa7KT610ZecHceP/3TP31MAuU1MklwTY02HefuOYUeQg3gRON1bnB9y1vecu97jYNAeRcqt0etzDn0EupSJ8Ebz972trfdfafutfqWbAS8zBqRBlsLNfVK/uKTx93Pa/nU0INjyQ9PPvnk4Z3vfOe9fCDjUceyPHDtyjJzcTGh3gNuyU69hPqa0UuorxlbC/W1YO8c7wn1SCONNNJIV5seODDSSCONNNJ1pWc/DEzjluw0pj72gTH1sQ8MoV6AW7LTEOp9YAj1PjCEegFuyU5DqPeBIdT7wEWEmuUqrI9lHSXrCHP5isDSHfKQ/OUlLGlhbaLK5/pFjmnN6ZZYayeW51B/1l6yhtaX2GmNuDjn0i0Af/0be3h6eT5znEQeLf/RPUs2m4MeQi2/U7epl9GwpEk2cA4eN772GPDdRdZ3vc1FD6HGrqy7lW9rHBWn5PF31UzZiDLy+drY3lqoiT+/NvWvxbrbYC2fGlo5Um/8SKxR/1I7FIhPvQJA8FhN7VLbTXsswYlfG8lzwGnaVVXb9YNhPNDJ7y/kUXnO42yga6lhk2+tIeZgrZ38NZzw5BrUmc/ecTlnh287pZwWzau8+PvW+prN5qKHUBO0qoM6lAR1cx+6rWpxIxu0oodQUyc1WDjSyBNTceqNF67aacox3yzi91mCLYVa8efXdv9dsq22cKRO/orkWjsE8NC2efeH+4fy2mVda7tLceK3nuQ5UDkJk1AKOsj5FlPPn+URAMrn+wNwfM3APbDWTtRV9Zc9tAjedww6R4f4CtpOnDYjjxp6zWZz0SrU6pAc3ikJCnxBW2xlJ4c6csq4iK1FD6F2TrUOMbcN8xRF/adslEKW15iLLYWamKL9+bWptzZYedun7tlW5cMeaOFIPMFFKMWeQAzCj/NqT+qEBC/PdX3DWWrWXJz4rSd5DpDIa7szBfU89ETk5y+BTNCWypM/g9kb8BZotRPC6tu54ZucS8LDOe+F4e5JUMOv2UwjnTloFeoMfkAdSp0F9sAO2ioND/Kl6Kk8nH1KpGa3c+gh1MQf9WCLMH9Lo0TFq6DOacpGaSvF+1JsJdSKvWzfxJ7sgV8U6yUbrOFTQwtH2kXWhWuVYlXw8yUuOp/XyTY7Fyd+60meA5X0FweBkmhwzEcnOBhHZyAorwLXjVAyWE+02ok6a94RMRJnibAEK5H3rAk18ABxZEM5hx5Cnb5IfwG4Ex9wJyYkdlPl6eS9o8dmS95eJ/QQanW2elzOd6WDtD0c8PsUR50XNApfii2EWmIMMtbgqSkvfEKd6UTT9yXuLWjhWOoE1Y5q8POl8vJf1kkasBQnfutJnkNtdJdGgEBOfVCu9HhIeQXu82lELejxh7/utBJXIDsINaFW+dJ1ZLO56CHUOV9b8ns+0lNH/T86/bcaoVQerPV7q1Bz3xwRa3rG4b8dANV3ykbJlfKlTvwcthBqOOpFYHRMXJvPPtUhwEMjVh+crfVZDS0cS9MwySPBefmnxIXzmgrzeMg2OxcnfutJzkFOoOd3kPPLnNejb+ZXY8jeKb/3xlo74USvv4Q655hrc5wpstiJ72kzH3XVbDYXrUINPNhLjRjk3KXbIPOLE2XcHmmHuegh1Cm0pd8C0s/6njbx7/laUz1xLMUWQu2DBOrJtfnsc7OCeGTbTJu0ooUjMedzzK49NXAv+Tnz+3e1VYHvpemxczjxW09yDnAQPTD/Q40eWGLy+OOPHx566KHjZ5yMsR5++OFjPqY91ID5S4PI8hiEMgQjaek7l5dirZ00jUP9H3nkkTvBgTOfxRmO4vzN3/zNh3/1r/7V8TOORgDIQ14FVdqM8gqKms3moodQw5t7qw5qqD/1Uz91+CN/5I8cP0uY8V/6PcuLAxzT7ymOc9Aq1Nhf87HUUfPUgO8vetGL7vJRX3yf9UWsSjbivOxC0nTZUmwh1A7q6dfW9I/HOvxLbXWNz2po5Uhsqd7eDl//+tcfXvrSl2b2e0INvDxap/LZdmWPpbiIUAPN4annBZ/4xCeOwS1wnPP5mARK5QENneAm4Hs6voQWO6n+1NUbnHP2nhYHv+ENb7j3XVMlWZ5j2XODms3moIdQA3/sVR0+9KEPHb7lW77lLo98WBptiIOXB26PJU8KjlahBhmzqiPvWvcYdo4ZpyUbAfLBkbSW49ZCTSxKlIRarG/ZVls51trhO97xjsOrXvWqe3kBebMduh8dtba7BBcT6j3gluzUS6ivGT2E+tqxtVBfC/bO8Z5QjzTSSCONdLXpgQMjjTTSSCNdV3r2w8A0bslOY+pjHxhTH/vAEOoFuCU7DaHeB4ZQ7wNDqBfgluw0hHofGEK9D1xEqFm6whpD1sjyt7ZUjKUrrEHMfFPlWQrDcVIuT+uNtXby+sPPl1qxTEn196WKCZYDlcrzWTbLpY5+z5rNa+gh1FN+E1gKJf6e4JXHdBz08HsPoa7FbEJr6ZW0BGzKRm6btRy3EmrFo5LWfwtaiueAQyufGlo5ejuaegVrjUOtHQKW7Lmt1iy1vIhQay2o1ipS2QTnWARPcPJZZQBEtVbTy2sxOfm1G2iNEeZirZ2cC/y0YcXrDIfaS320PpM8nNeiedkMsedaXn6OzafQQ6jlN/mzVAfqTf2VKKN6+3FsoI1C2vDC5xa/9xBqbK7Y1DrpEqij89F62pqNnCP5xX0pthJqrRcWnxw86B3dgvwk7nDruZa6lSP10Tp2rQFPUN+ST9QOVd7bO/m0W1XJO+O5uIhQc22vXKlhITAiBzCA8viCeq6juhLM7uzSYvOeWGsn6uSNTPag7h7M8CwFCI723luL8nPrNHl0Pe7h97z0FnL5SX7X9ymxUUMoBbLbIO3kHfkS9BBq50j9S9eRMCU4XrKRxMI7bdrGGo5bCXXtesQYXLV5RMBf7jPahLf3VrRwVNwJ6lQS6QNx0oDRIT/24nnit57kOZSCFwdmbyrSej1iPj4AyvB4kWKGYX1r9lZotRNBzOOtAhhH4mC2lk5tq+Wezotg8STI1twn61my+RRahVojCUfpPRiO2igrG72ED5+3+L2HUBOLej1CaQoA0JB5QyD5+MujdamjBrJB+gsb1EbrU9hCqDVihg/brXOassQtB1F5vhUtHPXE6uBaOWBIn9CRcswHSALlyaspL+xEoq2vwYnfepLnUHJIEtYx6gB5lcmgJ1Bp7DmHRD7yk5aMGpei1U6qvwKbxGeOca426s171oRaIzIJtgPbLBmR9RDqOX4XfEoooUdmARsR/NhMfs9GNQc9hBqbyn+1qSs9+dCZkBTbUzaSH4XsrOZiC6GmXuKD3UvTWsktfZ/nW9HCsWTbtD+ocdAInEED9kCfFLP4meur8+L4mvn5E7/1JM+BypXeR51GwPH+iEBjLD1+QJgGXSK7dtQxF73sRIOmFyd5fWnQaSuQ96wJtR6l1dAdJZtP4dJCnY/6Qumxkrw+OsMGax4vW4Vaj/k+mpwzuscGenqq2SifLtbG9hZCndAAwZHc+OxtNs+3ooVjbUSdyPj1kbT4qG3Xnh7XxuqJ33qSc5DXLo0ck4DP3+VIEINojtavU3oE6Ym1dlKPKqiXzTkvcU6k0yVqOf/lwS/bCSWbT6FVqEvzfFyrJGJq6KVRcdoIZINZ2+hbhbp036wb0FOiICGu2Qg74GMXNsXMUmwh1NTf6zZHqLP+GbutaOFIXf11tSW/gNIAAV7w97bl9iBPTlvmTMEcnPitJzkHTtAfcT/60Y8eXv7ylx8/yzgi7L+ckl+jLYyqUQukeeTCMCQ+rwnmuVhrJwJW0zWa31OwI8ISKBwozq973esOP/zDP3z8DCfmA1Ue/pRJm7mduY7uOTWtUEOrUAN4qz4+anniiScO//yf//O7fNgiR81CjiyB5oVBi99bhTrtjz/lm/e97313r6mFO0KgOPXXYNZshM9URjFT6uTOYSuhVkcDvK16HhdqlZEN9K/IeqGVoz+lO5/HHnvsTnu8vZL0n8j5XNMu2iTTmwB75X8vn4uLCDVEqDBk+CtCBPNXfdVX3eWTc6kLRCVg5Kccx3PEQsBjZNKaxroEa+3k/HG0j0b0mMQ550wH9opXvOIuH+IExxxdK3go7z11zeZz0UOoCUz5jb/iRvB/9Vd/9V0++NRGGfg7BYrryB4tfm8VauAx63bm2n/mz/yZu3wep861ZqMsU5oWmoMthBoobsXH6w2wQ/oUDiqz1mc1tHKkvvgx2+H3fd/33eMB75JPvB16ef7yvdT2l+DEr43kreCW7NRDqK8dPYT62rGVUF8b9s7xnlDTe4xUT7dkJ0b0e+f7t//2374n1Hl+D+nrv/7rd81Pae8c7wn1SCONNNJIV5ue/TAwjVuy05j62AfG1Mc+MIR6AW7JTkOo94Eh1PvAEOoFuCU7DaHeB4ZQ7wMXE2qWsvD+DrZZToHlL6V8LIPiOElLX3RNT2uXMc1BDztRP19uBhfVfWoJnfjzrgBfCuXlc32m7LPm/QK9hPqc30s+JAHsVDoOPB6m7DaFHkKN/bEv9UAUa3AuudywZiN4qUwuf5uLrYSaZWbul1K7oy071ykbtKKVo/txagldjYOXz3ZYa7tLcBGhZs2k1v+yVjTXVwrkYc2h1iT6JhmtQdS1dJzvShzn+luh1U7wp7wcidNYAE/d4eKL5h2yB3/h57uoOO7ldW3ZQ2VqNq+hh1BzT+6t+pfqUPKh/Mt31rb6eaCNJZRN3kvQQ6gVc1pPXVofjJ/ZsCI/+WaRtJHKa2OT7KPNIkuxlVDDlbYqv6RQ891jHb5woE2TH249xbqVI3zcDyWxFgf5RJubgOJA5WUPvlOGv/hasb0UFxFqdwrEuFcGHcR8JxOBKrLpVIyUTiYg1gbzXLTYiXppobyCl6D1joXvucMLYBdvCHJ82syv56Ivm6fNptAq1Oln7k2dpkB93YfYIgUAwNkbEvFQ6gTOoVWoFXOCOCfSr9RVm0RqNsKPGqjoe8kW57CVUJfasAAPdbg+cCjZoBdaOKpTFIit0jt3ss7wwUcSZwG7uB/db7VO4BxO/NaTPAeNIh25uxBgAPXM/viAESGnR47a44PEa0u02Em9rXMXZ4HjpQDhni6yPpIplcdmWc+SzafQKtTcK0cP50a+1NHFSaNwtuBOPf7LHkvRQ6i9owRcJzni+/ST/FEr7yIHUujmYguhlrDRFnlNQU7ZODdxSN+qLfRCC0ffui+UrpVtCJ+oQy2VVzv0p+Rss3Nx4ree5DmUgjEJ6xgio0anRwyJD+dlGH/0B+RLUdgCa+1E/TTSzeDNBly6fh6Ts1OgFBhcx0d6oGTzKfQQ6jl+F0p15t7w4xz2K3Vi2DafuOaiVag1AlZDRHxkf0fydhGr2Sivgx0y7xxsIdQ+9aTRpEaa1FOfM9ZLNuiFFo6lTpBr5cAgOaizUcelGPRpn6zTLoTa8+nxQ2S9Ifr0AfA5oS2xxk56DJTTM3hTqEvTA3nPmlB7A8/OrGTzKVxaqPNRv4QcZUqkS/P6c9Aq1ECNEnvDocQxj8k2UzaSHwUNUpZiC6FO+MjRB0wZ6yUb9EILx5pQJ5KDPxUQu4oDrqVYzetcrVAjVHlthDYbV04DqFztMV7CrHzZ+22BNXaCk8p5ksNSaEvBmyNGiRplfc6M8uoUsp4pcufQQ6hzBMy1aiPfPAeHjBH3u36YqV1vDnoIdQJfZSxmh0oDx4dTNkpRyFiZiy2EmvqlrxTTGec6nh2xP2X2QAvHnIYptR9AnvxtJAVevlf51DrNay/Fid96knPgI2AqrUdcSL3lLW85fua8/5Dk8z5envP+ysc08pboYSdvgMnZ5zLf//73Hz7ykY8cP3tDd/6ypcp7PhdmPZotQatQAx/tiit46qmnDm9/+9vv8vk5QR2w/Mx1xJvY8KeUtWgVauriwuwx+6lPferwkz/5k8fPiJL/BxT/galmI/zor3Jd+3rMLYQans6nNEcLPNbTBt7p9kALR+ybflQnwquY3/ve994dl0+AOLimZfla212Kiwi1iOAo/qpXoqH80l/6S+/yQcjzKYC9PAHrPVKOKrdEDzvlSIm6w41HJs4pWP7En/gTh7/5N//m8TOORZjE3wPcy7t4pc2XNooeQi3hSX/+wA/8wOHX/tpfe5ePupUauqY2kgPHXGBJpfLn0CrUoBaz1PU3/+bffJePBqv/m+d1rdkIP5KP/Ph8bYxvIdSAulEv6k3c5dOP8nisuw16jqZBK0f8VfLDP/pH/+jwlV/5lXf59BuZpjgEtUPZQ+2Qv95214ymwYlfG8m5KDmzhNrIgfKto6gWbGUnOM3pZclT4s+xmm1rx8+hh1ALNX/OxVoO59BDqMGU/R1Tfq7ZqObzudhKqMEUnxrWlJmDXhzn+DGnfoSpOGj14z2h/sQnPjHSRLolO/2n//Sfds/XXh+5W56vfvWrd81Pae8c7wn1SCONNNJIV5seODDSSCONNNJ1pWc/DEzjluzUc476WtFrjvqaseUc9TVh7xyHUC/ALdlpCPU+MIR6H7iYUPOr55ve9Kbir6VA5zPl+VJ5fjH3vFuhh51KK1dU/zzu4Bx5Sr8q18pP2ewcegn1uTrAJ33uvtT55C3OSrXrT6GXUKuOaX9H8vT61mwkn7s9lmIroU4+ims/VuK6VVvtwXGOH0GNg8qX+NbsMRcXEWqth2XNqd4RkNBaWiXWJGqTht4toDWrKo9BtZ5Ra063RKudcCQL3rUUy+uvdZilZVqU45zy5Bu84M5fX7Rfs9lc9BBqrU2lvtSl9NIsztX8Lr7iwMuZBOrl5ZbyAz2EGrt7HUscAedK9a3ZiMZMrMi/vtFiCbYSaurE+mDxof7EqXMkcV/WDpfa6jlBXIJWjtrpqpjLgQEocRA4RvmMg7SH2uRSXESoffcVAaiGWIMMItFyAfPyBIAvOvcGsAVa7YQjnUtuQa1t/PCdbNgG/thBL8QRCDKJeM1mc9FDqFVPQF2o0xTghjgRK5Tj3mrM/OU7x7mW816LVqGmnt451uwsn5VQs5E6bwG+tU5gClsJtfOugfjWxhbfrQeI87WbP0po4Si/iQ9trbQhJ9ur9Eax6YOkUjtWez1ntxJO/NaTPAeCOa/tIlICASqDqME6tD0aY+Te+5KBe6HFTtSNRJ3FXYIk1IRaAiUoyHVNgevSwU3ZbC5ahbokpskj4eJEMOeohvIcw07k5R4I0ZrAB61CXfKX6uhQrPKXV4K6MNdslP5KX8/FFkJN/TTq5Poln0r8dC7f9ZHC3YoWjulHCW+ipDfSKR+MlrhpELKkDTpO/NaTPAcFqcPFKiGRKY0yBJXP69R6sl5YaydvkFlnAUeyxbQ0asp7ImbqlFKoyVsSgNp9a+gh1OmLqQ46RzUJPW4CTROoQ3dBWIJWodaUlI+oZX8HPsr6kqdkI53L66wdhGwh1MQo11PHSp0zbjnnsZnxV+LeghaOOVIGpWslB3/HCWKvLfX8zTgu3WMJTvzWkzyHkkOSsMNH02CqfF6nlLcn1tgJhyGaEpKss/LkuwMceU8fndeEOu1Quu8UthDqqTrko76Dc/7ImE8inF8jYq1CDbgvDZMX6FPHHAkD6ur1VQOfspH8KKxt6FsINVz8qQGRZrTo57mfi1X6vsS9BS0cS08rpWulbzUShy/8+c5n4thfQAXUAa/Fid96kudA5fJVjknYkaMuzQM6PMi9Jy89cvTEGjtRJ5yI40h8RpQ15ww/ObmGDHo9RmpkLWATbDtls7nYQqj98TBRO5ciXUI+us5FD6EGcCUOqeOc0T351XCz3tSD8tlGSmIyB1sIdQl+/VI7zLZamwdeixaOpfqWrpVtSJ1n6WmH8opneOeswFKc+K0nOQcevHrELUE9ccLLqzHw1388Axit5w8UiTV2ot44V4kGSB01yjon0oAyHuSaH6Sc99w+6irZbAlahVrzfD4tUKsDdikFMlxKo0js4Tar5TuHVqGGkzfQGo+copIwlGzkPyZ6LGcMzMUWQp2j+xQiuGVMw8XLJL9WtHDUFJZQm0JNvRFPkq8ASb9ir9rT4lyc+K0nOQcQIdD4v3cQkoPe8IY3HH7Vr/pVd/lKIwyQ5RX0GAID89ipR8+pkVcretjJe2Uc7aNtkhz6h//wHz580zd90/GzBAD+LNPygIczx+Dv4lyz2Vy0CjXAz14HNd7v/d7vPbzgBS+4y1caEcOZe7ttSDQqGhJcua78fm4UW0KrUAPqjf2pC76UmL7yla88fPmXf/nxs4RAcepPD/ilZCN1bOTn+uRZgy2EWh2//pdlPgXnd5WBw1ZttZUjbcr9qPrjH9oicJ/A3X2idlhqb8RIa6d0EaEGBCaV9cfbp59++vDYY4/dfccQpcdfUCoPcLZ6tZ6OL6GHnai/6slnH22TxO9973vfPfHhMxxLoyqOlfjXbDYHPYQacG+C1uvw6U9/+vCOd7zj7nvJ7/kkouSjT9kjec9FD6EG1EFPScKTTz55eOc733n3XXFaqm/JRmDK53OxhVADOCjuspN0Pzm8TOl8C3pwpN7pRz7TFoUpvVH59KO3+bW4mFDvAbdkp15Cfc3oJdTXjK2E+tqwd473hHqkkUYaaaSrTQ8cGGmkkUYa6brSsx8GpnFLdhpTH/vAmPrYB4ZQL8At2WkI9T4whHofGEK9ALdkpyHU+8AQ6n3gIkLN8hR2J7KeUJs1EixP8kbjdWLZC+WyPEte9O/ZtU51S7TaifrWXszC+ulcSyw4T9Zxaq0t0LsW4O+vwpxj8yn0EGruCV/qTV1qdWBJE3UkHzy1lAk7UT459PJ7q1DnTjXZXH6q8cV/1JvkfFkK5uX92vhZZZbw3UqoxUG+0ZI2j7u0gThoLXJPtHIUn4zBBOutSxzcHr6uP9uht90lOPFrI3kOVFBrQWmUuaW8BF8k7g6HqHYB+XtBMOwaQVqCVjuxwSUbIOA7x2tCrW2qAH7kha86MAWVtpYDgkVBoXxL0EOouae4Ui/fRSkkB7hq04+Xd79zLe0IbPH7WqGmEcKFMu5Lj9mazbVpwn0m33p5+Rmkjcg3t8FvIdTJwbdQ12xAfRXf8tlcDnPQwlEDKIlr7rwUShzkf+6t8h6f3iY5v7aOJ37rSZ5DqXJOqgSIuUG8Mfh2VYLZez7EKUWwJ1rshJNxWo7CqL9EtSbUNAq3F/mwQ25N1dbXks2XilmrUJeEimvlSGVqK7HzVmcGkvdav68VajU+9yW8kl+pXpRzEeC8Bi618t5RA8XSHGwh1Gl/QTZwSMxcsEBNDNeihWO2PXVECbU7Qe/aSd/7FnS463jmW4ITv/Ukz4GKpgClWDmyd3Nou232xHxnhNPT8SWstRNcqDfckjsBjGNLdhLynhqFkd8bMNfQ1Ar3c+R9z6GHUCcfrpV1II+esjjvj534FR5sy3W/y47aXr3W72uFWnCb8jevkQ0b4C/3mTpVOtFSefnZY75k2xq2EGriD5unz6hXCpxslPHnYtYDLRxLnUbpWslBvgHquBWrOSjifG4tX4ITv/Ukz6EUVEnYkSMOgYDWSCIfoTW6XDpqXIq1dnK+/tlHRiU7CXlPNXY1ZEFiUbrWlM1LaBXqHKWAUh04pk4MSAR0ju+yk/4VF9/xNbGiec81fu8t1P6qT53Pp4UUaiCfZR3k37Rbyb81bCHU3BubazCFD/BPqV6qewuHOWjhWPNJIqctJc7Erl5TrMFFXo/jitXSIPQcTvzWkzyHkkNKj4QC53IUkvC5IYfPDW2BNXbSaJGelsRnBIf66wcJjnNM+RJ5T42o85HYG4S/zQtkQzmHVqEu+Z1rpaBKjATnkE8FEmT+5iPoGr/3FOraiDhtnqKgEXVpuoryGnle24jaOYi7z6sLNaEudeQtaOGotuQoXSs5UM6nwYSpKY5ss3Nx4ree5DlkpfW9hFKwciwboYSeBuqGu0ahpn5qnCREBmflcY5xruTEHDGKfz59OP+SzUuBU0OrUOc8H/fORgzwYWmevdTZiHd21GmHuegp1CB/S8jvIAXKpwAyv/xOTLiN8vsUthDqtLd8AvxHRn2HU/pZ87u90MIxY43vOUgAcPYnJH0v6Y7aG751n16tUAOcwoiRf5XOXzmMN+f9yT/5J+/y1UYKGI2RJ+X1ikSgxwyCkVRb+tYLPeyUjVtI7l//9V9/+J7v+Z7jZ81vwf/hhx++4y/x41jyr9l8LlqFGsBHdWAuWQH6xje+8W4agyCmkfO/BOEAT8QLbpqfprzm/gDXkT2S9xL0FmrqxbScbC5/Pv7444eHHnro+Ble8MVn5BNflRcvLy8bKc6XPD5vIdQed+Ig32bcScDUca/hMAetHImtkk9e85rXHP7W3/pbx8/4WhzICwdskfZw3thDMcH57Izn4iJCDdTreI/0xBNPHL71W7/17juGyB8KAYbQ4wV/vcfGoPRSGCQfq3ujh53gV3IUx5z7d3/3dx9+4id+4u47PLEfPJ2/RisapTvc5ktG06CHUIOS3/HTd3zHd9x9Fwfy+ZTGXL8n77loFeqSL0s2/8QnPnFvSovjCFvyBZqPT77YrObnKWwh1MA5ZJst2QA4h95ttZVjjc+P//iPHx599NG779hecee+57PKe6wD+ZTzGS9zcTGh3gNuyU69hPqa0SrUzwdsJdTXhr1zvCfUI4000kgjXW164MBII4000kjXlZ79MDCNW7LTmPrYB8bUxz4whHoBbslOQ6j3gSHU+8AQ6gW4JTsNod4HhlDvAxcRapa+sLaQ9YT8rS0VY6kSeUi5nKlWnqUvKpNLnXqjh51YpuNLk5wz6yxr0HpM1iPPKT9lsznoIdTck/qeqwN8Sn53bkqC1iyTlixXcwyh3g/2zvEiQs06WC2IZw2iNzhBC+JptDRoFqBrPaOXVwMFNFAtnNdi9LXrFOeg1U7UnfISFm25pc7iXOpstD6TPKzR1C4wtxmfvXzNZnPRQ6hVB+qN30u7B8UBm5BPa6aBrxtWAtroJL+v3TwxhHo/2DvHzYWaBuTXpjHyPUdXNDjfmUcDVyPP/Hznurm4nIYtcdoCLXZCTBEX382W24nFOSExFrSVmrwuflpYP2WzuWgVauqrDgVkHAj4zHdNkk9cc+efwHHflJBbe+diCPV+sHeOJ37bkUwBBvmuBqARpbZD6z0HGjE51ICzISNcea+eWGsncUOEvM4c13ZitlCLcyLvqZGqj5qB26Rms7loFeqS37lW8iMPTwGapvHpGzoopk54WZVP+WgELmSHNRdDqPeDvXN8ToS6JBqaz+Qco0L+Sqhr5TWyFGjwmbcn1trJR3wp1IgTfJ1zIu+pJ4eSUJN3ymZz0SrU2vrtSIEF5KFTwXfyqbYee505Rnk9LaRQ573mYAj1frB3jid+25EsiUYKLMg5TB5teTlKqbwacIpPSRx6Yo2dECBGhLyURS98YdTI6FrvDBD0joRE3pNyNaF22zjSVufQKtSlOqTAguQw1dkqblLwKe92nIsh1PvB3jluLtT6scjBvXKOWi8tEdQgS3ObOp4vUKnN8fbCGjtpHlqJuuuHUr77j4dwzikLkD+SSnRToDRHPWWzuWgV6pyj1kg4oU5HkMBT13zZj4Q67bb2t4kh1PvB3jme+G1LkoalR38f9X7wgx88fNu3fdvxs0bQEnAfYdfKexkaNiPXJWK0FD3s5CPbEmcJ77/9t//28Na3vvX4mWN6Lag6MKBOUCtluJavlCnZbC5ahRog1KqPVnCAd7/73Yfv/M7vPH5W5wQXTX8huuLmtpLwu93gXvvXbecwhHo/2DvHiwg1DYqRHg1PqxIAr/H8U3/qT93lo4EyaqJB0rCVL8t7o9RyNV/OtxV62AlePg9d4/zX//pfv3u9Isc4Rx4E18vDWeV9VDllsznoIdTUU3VApMXtDW94w+Ev/sW/eJeP0TEcyOdPCBo9lzjAVX4vLWmcgyHU+8HeOV5EqPeCW7JTD6G+dgyh3g/2zvGeULNEbKR6uiU7/Z2/83d2z/dv/I2/cU+oX/WqV+0uvfSlL901P6W9c7wn1CONNNJII11tevbDwDRuyU5j6mMfGFMf+8AQ6gW4JTsNod4HhlDvA0OoF+CW7DSEeh8YQr0PXEyoWUbGKyz5EacGll+Rh5Q72FiCxXF29WmZl67pacslemvt5LyUtNSMJWw1zo4Sf+DXzu3nc2xeQy+hZvnkuTrAp2QDjsNXvB3kK9ljCYZQ7wd753gRoWZtLOtgaVysey1t90Vw2LiAuCBKvtmBxq5daazHZbMDIK92I2pdbenavbDWTvDROmcl+CKs8BTn2ppgP4cd9cpSBAqbYR+uoc0vwG3OWuSldukh1PiKOqj+pd2DcGCjEudkJ9mAMlxDfhdvt4f8vgZDqPeDvXPcXKhpiFxbox7tOEvQ6Hz3nARNYuSjJh13qPHm8Z5YaydxSeT26bSB4OKl7whyvhuEa2n3H/XUqJ2/7oM5aBVq+Vn3VKeUgIO/4wVRhmtuQQfiRKfjI2/yTT2N1DCEej/YO8cTv+1IakTn4F7ZsGiAEiA+M2qmwaq8HvHzERhoVJbX7I21dqL+L3vZy47bwPlb2yWoUXAi76nt4eR1oZet+Jsit1TMWoW65vfkTh78rGmanL4Rap0N9/EOYQmGUO8He+d44rcdyVKD9fddOBAqGh2Jdz7Q+MiHCOvR2R/9hTXvsliDtXZCJDUNAYeSsGjEmUIlgXL42/N8Tl62WmLzGlqFuuQTrpV1IA91xveyTebBVnTcOX2DHbgmnd8aDKHeD/bO8cRvO5JzRUPCIwHTS3zIR91c2HJ0mFMDW6GXneh09MIkoBcOpUgDTR05NJLWyFqQrefafAqtQg2nrAPXyjqQxwU4y0mkfXrEwfm0w1wMod4P9s7xxG87khrlObhX6RE4RUcNO+vmolOb+9wCa+yEkPAeaofPTeePgCVwT++o4E/HpFGooDnukk3O3SPRKtT4Rz/6CskDUN/S9A2gvsROijB5/Dp60lqKIdT7wd45nvhtS9JFgkam+dOnnnrqKAiAxsh0h+A/lPnjsFaHqKHmD2pbYq2dvP7Um/rzXascUrwA9vrYxz52/Aw/iZX/SCdbqrzn86cOt/lctAo1cL/7VMiTTz55eOc733n8TEeV/11cb9pDpEvLLZ0nyE5+LoZQ7wd753gRoZZQ0CD9Ef/f/bt/dzfa1iMsozDyMT2gfBohclxL+ITaiootsNZOmtrI+sPRhYIkMePvP/tn/+z4Gf7klf2cP6KGDbEbZSTalCnZfC56CLXz9jp813d91+HLv/zL7/I5B63cQXjTNiRiyblRrjYtcg5DqPeDvXM88bsMyZzuKIFGWsu3VGx6o9VOrfWv2WULm/UQamFOHaY41ED+0tPIXAyh3g/2zvGeUH/oQx8aaSLdkp1e97rX7Z7vd3/3d98T6jy/h/TKV75y1/yU9s7xnlCPNNJII410temBAyONNNJII11XevbDwDRuyU4956ivFWOOej/YO8ch1AtwS3YaQr0PDKHeBy4m1PxCz8aPqV/2+QWfPLlBBNTKT5XpjbV28joq5WoFvk+tjhD/Uh6WrJWuWbPZHPQSaup7rg7Ko+R5a+XFuWbPORhCvR/sneNFhFrrafUuh9J2bxoa62jZzMCOO38TXpbXOmLOax2t1mBvibV2QlSoN3VUSsHV8RK0bhi76K+AnbAZNphjs7noIdTcmzrpHS4lv4O0jeoKJ3Hgr8rDkXpN2XMOhlDvB3vneBGhpiFqRFTbJacdaaXvvsONv9oerfeBCIjCUkFagrV2OrcpR2JaE2oXL4kU9uSYl/Gt6bkbVDabi1ahVj3VcSCy+SoB5SvVTX5Wefgqn28zb8EQ6v1g7xw3F2oaFQLq4F45AqLh5bs+NFLKhsx3ndc2aYBI5RvWemKtnRjxIqr8lxMajgN+ejNgTXzynhJuF2agd32UOkPZbC5ahbokplwrpyjcj9jHO/RSeewlP8MXe+Y152II9X6wd44nftuRLDU4hClFI0fHNEbqVCrvYpRCnXl7Yq2dqKce4amfpmg03SPxKdUd4cp7kk/5S53blM3molWo/d0egvzp0NME/tcUCXk03eMjapWn41MZYsaf2JZgCPV+sHeOJ37bkZwrGjRIvb+BlzORx0fODpXPUWJJHHpirZ2oo4/64MmIGKGR0C4Ran/Nqc/7ch91gnmtks2n0CrUJT4SWgf8XGTdh3oHCP9wAV7ihoh7GfKteZIaQr0f7J3jcyLUPn/qQMzUEFWOv/kjIUJHnhQfxGHtC3rmoJedNGXBteiY9HIhXthUEpy8J7xLUx9zbDYXrUJd8jvXOjdNoc7Gv6ujg0Np5FzqFOZgCPV+sHeOJ37bkcwflfxHIQfC44/x/q5lf7T18npcFiRgW2GNnfzHP0FTNp60aqMkphz3FQ8Iun5M9I7J7VGz2Vy0CrV+JJTf4Zjz5iD/nRifOUad/fW1Xt5XgABsMF5zWsYQ6n1gc6EGNCLEhv+Jx0hPYvroo48efuNv/I3HzzRMGiD/VomUS81K5b0M0yX5o2VvrLUT4km9qT+j59KoP0eFv/f3/t7Dt33btx0/673V4i8xxj5whjs2cGGs2WwuWoUaOG86F4nrK17xisPv+l2/6/hZc9Hyu4+asQfcsjx/4cpxTYucG6mXMIR6P9g7x4sINaBBIhY+Yvz0pz99948DAI2NPKX1tqXygDLkL5XpjRY7qf4+VeNAnJwbnz/+8Y/fOz/Fn3MpVjWbzUEPoQbcm47anyg++clPHt71rnfdfXe/JwdxyykP2UPTImswhHo/2DvHiwn1HnBLduol1NeMIdT7wd453hPqkUYaaaSRrjY9cGCkkUYaaaTrSs9+GJjGLdlpTH3sA2PqYx8YQr0At2SnIdT7wBDqfWAI9QLckp2GUO8DQ6j3gYsKNWuFfXNDgnW3rKMlsT5WYIkXO/dYV5s77DjGOlrW1bIOd0ustRPLx1g/TT2pv9ugxtlBefGHp6+JrpWfstkc9BBqrf+GN3Wp1YE8Lpiyj3ZvegJuT+yxZrMLGEK9H+yd44nftiRpWIiIN8KEdp5pTazvMuS41h/TKPW6TD5r9xrlPN8WWGsn6igxoZ7aNahNKUJtZ6Xv3kPstLFljc3molWoqRObVCTO7qvMV7uH3jqY0O5F4PZciiHU+8HeOV5EqDWS9m3hiTxHA0V4JEwO6krD5LxvdMlr9MZaO9XK5Ls64FwSM8r7pg69nCj5zrHZXLQKNfXzTqgmyOSjzpzP+mlLfY7ExV9IO87FEOr9YO8cT/wuQ3Jq6oPGOveVnWqoOYLm2pm3J9bYSYKFqFKWUaZGidnRlLgiXnlP8ojrUpvNRatQl95kyLWyDuTDJtSPxJZzCTb5OcZ1fMonrzMVV1MYQr0f7J3jid9lSE41KAmMMCU6Ol5qsJm3J9bYSfWUoGq0qyeCEmeHyjtcqEvlS9fJvOfQKtQlX6S/AN/zBUt6KRPX0JMEdqN8qeMiX+n9KecwhHo/2DvHE7/LkJwSap/HBVOio5F0jhLXNti5WGOnmtBqxOlzsCWuoFZ+jc3molWoNQ3j4Fo+hVOC/FqC/E1Hl36vxdUUhlDvB3vneOJ3GZJTDQrB8VeW8h3R1dymGrjPdebrLfN7b6y1U/7YheAwisQWztlfU+rIVRv6vsZmc9Eq1NSPegrwz3lzQP19RO3z7L6KxX+cpIPyMrUfHc9hCPV+sHeOJ36XIZlCTUN58YtffPxMQ6Zh6/8K6p3LgMZMo33Tm950/Ctx0uiK/A8//PC913xugbV2gjNzr9SfemqlhjhTfxKfxfmlL33p4Qd/8AcfKA9/jVTX2GwuWoUaUE/VgfrL969//esPf/kv/+XjZy3hkw3ggF+xD8d5lSnled2pfmjlvMq4PZdiCPV+sHeOFxVqGpg/sr7vfe87fPu3f/vdd0ZLCAqjwnxM12gxR8zk00g0Vw30RoudECTqTz1dVMSZ5Jxf9apX3XsFLCNG8S+VX2KzOegh1NRTdfAR7zve8Y7Dv/7X//ruu/vQnxwor+ms5OD2XOv3IdT7wd45XlSon++4JTv1EOprxxDq/WDvHO8J9UgjjTTSSNeZ/j/Ie+UJCgDkhQAAAABJRU5ErkJggg==;" vertex="1" parent="1">
          <mxGeometry x="570" y="340" width="263.63" height="268" as="geometry" />
        </mxCell>
      </root>
    </mxGraphModel>
  </diagram>
</mxfile>
